<svg width="544" height="142" viewBox="0 0 544 142" fill="none" xmlns="http://www.w3.org/2000/svg">
<path d="M123.75 129V37.95H121.5L123 24H146.4L153.6 80.55L160.95 24H183.9V129H169.65V47.4L158.55 114H148.8L138 49.2V129H123.75ZM219.193 99V114.9C219.193 115.4 219.443 115.65 219.943 115.65H225.943C226.443 115.65 226.693 115.4 226.693 114.9V87.9L214.843 82.65C213.943 82.35 212.693 81.85 211.093 81.15C209.493 80.35 208.043 79.2 206.743 77.7C205.543 76.2 204.943 74.15 204.943 71.55V37.35C204.943 33.15 206.243 29.8 208.843 27.3C211.443 24.7 214.843 23.4 219.043 23.4H226.843C231.043 23.4 234.443 24.7 237.043 27.3C239.643 29.8 240.943 33.15 240.943 37.35V59.55L226.693 58.35V38.1C226.693 37.6 226.443 37.35 225.943 37.35H219.943C219.443 37.35 219.193 37.6 219.193 38.1V69.45L231.043 74.7C231.943 75.1 233.193 75.65 234.793 76.35C236.393 77.05 237.793 78.15 238.993 79.65C240.293 81.15 240.943 83.2 240.943 85.8V115.65C240.943 119.85 239.643 123.25 237.043 125.85C234.443 128.35 231.043 129.6 226.843 129.6H219.043C214.843 129.6 211.443 128.35 208.843 125.85C206.243 123.25 204.943 119.85 204.943 115.65V99H219.193ZM295.232 69.45L293.732 83.4H278.432V129H264.182V37.95H261.932L263.432 24H298.232L296.732 37.95H278.432V69.45H295.232ZM317.707 37.95V24H358.957V37.95H345.457V129H331.207V37.95H317.707ZM395.021 24V69.3H403.571V24H417.821V129H403.571V83.25H395.021V129H380.771V37.95H378.521L380.021 24H395.021ZM477.803 115.65C477.803 119.85 476.503 123.25 473.903 125.85C471.303 128.35 467.903 129.6 463.703 129.6H454.403C450.203 129.6 446.803 128.35 444.203 125.85C441.603 123.25 440.303 119.85 440.303 115.65V37.95H438.053L439.553 24H454.553V114.9C454.553 115.4 454.803 115.65 455.303 115.65H462.803C463.303 115.65 463.553 115.4 463.553 114.9V24.3H477.803V115.65ZM500.256 130.05V37.95H498.006L499.506 24H523.206C527.406 24 530.806 25.3 533.406 27.9C536.006 30.4 537.306 33.75 537.306 37.95V69.45C537.306 70.85 537.106 72.2 536.706 73.5C539.106 76.1 540.306 79.4 540.306 83.4V116.1C540.306 120.3 538.706 123.7 535.506 126.3C532.406 128.8 528.756 130.05 524.556 130.05H500.256ZM522.306 37.95H514.506V69.45H522.306C522.806 69.45 523.056 69.2 523.056 68.7V38.7C523.056 38.2 522.806 37.95 522.306 37.95ZM525.306 83.4H514.506V116.1H525.306C525.806 116.1 526.056 115.85 526.056 115.35V84.15C526.056 83.65 525.806 83.4 525.306 83.4Z" fill="white"/>
<path d="M5.29993 113.1H86.2892C86.2892 113.1 84.7999 115.75 84.7999 118.4C84.7999 121.05 86.2892 123.7 86.2892 123.7H10.5999C9.19428 123.7 7.8462 123.142 6.85226 122.148C5.85832 121.154 5.29993 119.806 5.29993 118.4V113.1Z" fill="url(#paint0_linear_242_54)"/>
<path d="M0 36.25C0 32.7359 1.39598 29.3657 3.88083 26.8808C6.36569 24.396 9.73588 23 13.25 23H74.2C75.94 23 77.663 23.3427 79.2706 24.0086C80.8781 24.6745 82.3388 25.6505 83.5692 26.8808C84.7995 28.1112 85.7755 29.5719 86.4414 31.1794C87.1073 32.787 87.45 34.51 87.45 36.25V111.775C87.45 112.829 87.0312 113.84 86.2857 114.586C85.5403 115.331 84.5292 115.75 83.475 115.75H7.95C7.95 117.156 8.50839 118.504 9.50233 119.498C10.4963 120.492 11.8444 121.05 13.25 121.05H83.475C84.5292 121.05 85.5403 121.469 86.2857 122.214C87.0312 122.96 87.45 123.971 87.45 125.025C87.45 126.079 87.0312 127.09 86.2857 127.836C85.5403 128.581 84.5292 129 83.475 129H13.25C9.73588 129 6.36569 127.604 3.88083 125.119C1.39598 122.634 0 119.264 0 115.75V36.25Z" fill="url(#paint1_linear_242_54)"/>
<path d="M0 36.25C0 32.7359 1.39598 29.3657 3.88083 26.8808C6.36569 24.396 9.73588 23 13.25 23H74.2C75.94 23 77.663 23.3427 79.2706 24.0086C80.8781 24.6745 82.3388 25.6505 83.5692 26.8808C84.7995 28.1112 85.7755 29.5719 86.4414 31.1794C87.1073 32.787 87.45 34.51 87.45 36.25V111.775C87.45 112.829 87.0312 113.84 86.2857 114.586C85.5403 115.331 84.5292 115.75 83.475 115.75H7.95C7.95 117.156 8.50839 118.504 9.50233 119.498C10.4963 120.492 11.8444 121.05 13.25 121.05H83.475C84.5292 121.05 85.5403 121.469 86.2857 122.214C87.0312 122.96 87.45 123.971 87.45 125.025C87.45 126.079 87.0312 127.09 86.2857 127.836C85.5403 128.581 84.5292 129 83.475 129H13.25C9.73588 129 6.36569 127.604 3.88083 125.119C1.39598 122.634 0 119.264 0 115.75V36.25Z" fill="url(#paint2_radial_242_54)" fill-opacity="0.3"/>
<path d="M0 36.25C0 32.7359 1.39598 29.3657 3.88083 26.8808C6.36569 24.396 9.73588 23 13.25 23H74.2C75.94 23 77.663 23.3427 79.2706 24.0086C80.8781 24.6745 82.3388 25.6505 83.5692 26.8808C84.7995 28.1112 85.7755 29.5719 86.4414 31.1794C87.1073 32.787 87.45 34.51 87.45 36.25V111.775C87.45 112.829 87.0312 113.84 86.2857 114.586C85.5403 115.331 84.5292 115.75 83.475 115.75H7.95C7.95 117.156 8.50839 118.504 9.50233 119.498C10.4963 120.492 11.8444 121.05 13.25 121.05H83.475C84.5292 121.05 85.5403 121.469 86.2857 122.214C87.0312 122.96 87.45 123.971 87.45 125.025C87.45 126.079 87.0312 127.09 86.2857 127.836C85.5403 128.581 84.5292 129 83.475 129H13.25C9.73588 129 6.36569 127.604 3.88083 125.119C1.39598 122.634 0 119.264 0 115.75V36.25Z" fill="url(#paint3_radial_242_54)" fill-opacity="0.3"/>
<path d="M0 36.25C0 32.7359 1.39598 29.3657 3.88083 26.8808C6.36569 24.396 9.73588 23 13.25 23H74.2C75.94 23 77.663 23.3427 79.2706 24.0086C80.8781 24.6745 82.3388 25.6505 83.5692 26.8808C84.7995 28.1112 85.7755 29.5719 86.4414 31.1794C87.1073 32.787 87.45 34.51 87.45 36.25V111.775C87.45 112.829 87.0312 113.84 86.2857 114.586C85.5403 115.331 84.5292 115.75 83.475 115.75H7.95C7.95 117.156 8.50839 118.504 9.50233 119.498C10.4963 120.492 11.8444 121.05 13.25 121.05H83.475C84.5292 121.05 85.5403 121.469 86.2857 122.214C87.0312 122.96 87.45 123.971 87.45 125.025C87.45 126.079 87.0312 127.09 86.2857 127.836C85.5403 128.581 84.5292 129 83.475 129H13.25C9.73588 129 6.36569 127.604 3.88083 125.119C1.39598 122.634 0 119.264 0 115.75V36.25Z" fill="url(#paint4_radial_242_54)" fill-opacity="0.3"/>
<path d="M34.6727 58.0224L40.5027 46.2034C40.7995 45.6021 41.2585 45.0958 41.828 44.7418C42.3974 44.3878 43.0546 44.2002 43.7251 44.2002C44.3957 44.2002 45.0528 44.3878 45.6223 44.7418C46.1917 45.0958 46.6508 45.6021 46.9475 46.2034L52.7775 58.0224L65.8208 59.9145C68.7676 60.3385 69.9442 63.9637 67.8136 66.0466L58.3796 75.2421L60.6056 88.2271C60.7207 88.8887 60.648 89.5692 60.396 90.1916C60.1439 90.814 59.7226 91.3533 59.1796 91.7484C58.6366 92.1434 57.9939 92.3785 57.3241 92.4268C56.6544 92.4752 55.9845 92.3349 55.3904 92.0219L43.7251 85.8898L32.0651 92.0219C31.4713 92.3359 30.8014 92.4772 30.1314 92.4297C29.4614 92.3822 28.8181 92.1479 28.2745 91.7533C27.7309 91.3587 27.3088 90.8197 27.056 90.1973C26.8033 89.575 26.7301 88.8943 26.8446 88.2324L29.0706 75.2474L19.6366 66.0466C19.1556 65.5786 18.8153 64.9853 18.6542 64.3338C18.493 63.6823 18.5176 62.9987 18.725 62.3605C18.9324 61.7223 19.3144 61.1548 19.8278 60.7225C20.3411 60.2902 20.9652 60.0103 21.6294 59.9145L34.6727 58.0224Z" fill="url(#paint5_linear_242_54)"/>
<defs>
<linearGradient id="paint0_linear_242_54" x1="43.3221" y1="120.52" x2="43.3221" y2="107.8" gradientUnits="userSpaceOnUse">
<stop stop-color="#9DEAFF"/>
<stop offset="0.716" stop-color="#8862B7"/>
</linearGradient>
<linearGradient id="paint1_linear_242_54" x1="30.1729" y1="42.8326" x2="46.0093" y2="157.132" gradientUnits="userSpaceOnUse">
<stop stop-color="#32AEE9"/>
<stop offset="1" stop-color="#2E68E3"/>
</linearGradient>
<radialGradient id="paint2_radial_242_54" cx="0" cy="0" r="1" gradientTransform="matrix(21.2 18.55 -6.90495 7.89138 42.4 78.65)" gradientUnits="userSpaceOnUse">
<stop stop-color="#8A82E7"/>
<stop offset="1" stop-color="#8962B8" stop-opacity="0"/>
</radialGradient>
<radialGradient id="paint3_radial_242_54" cx="0" cy="0" r="1" gradientTransform="matrix(23.5187 -19.875 11.1206 13.1594 53 76)" gradientUnits="userSpaceOnUse">
<stop stop-color="#8A82E7"/>
<stop offset="1" stop-color="#8962B8" stop-opacity="0"/>
</radialGradient>
<radialGradient id="paint4_radial_242_54" cx="0" cy="0" r="1" gradientUnits="userSpaceOnUse" gradientTransform="translate(42.4062 81.3027) rotate(139.399) scale(24.4318 11.1252)">
<stop stop-color="#8A82E7"/>
<stop offset="1" stop-color="#8962B8" stop-opacity="0"/>
</radialGradient>
<linearGradient id="paint5_linear_242_54" x1="36.533" y1="52.9715" x2="51.1292" y2="104.032" gradientUnits="userSpaceOnUse">
<stop stop-color="#F6D95B"/>
<stop offset="1" stop-color="#C97D08"/>
</linearGradient>
</defs>
</svg>
