<svg width="275" height="104" style="height: 2rem; margin-bottom: 0.2rem;" viewBox="0 0 275 104" fill="none" xmlns="http://www.w3.org/2000/svg">
<g clip-path="url(#clip0_237_9)">
<path d="M47.3047 90.0156C43.5469 90.0156 40.1107 89.0677 36.9961 87.1719C33.9154 85.276 31.4609 82.737 29.6328 79.5547C27.8385 76.3385 26.9414 72.7669 26.9414 68.8398L27.043 36.3906C27.043 32.5312 27.9232 29.0443 29.6836 25.9297C31.444 22.7812 33.8646 20.2591 36.9453 18.3633C40.0599 16.4336 43.513 15.4688 47.3047 15.4688C51.1641 15.4688 54.6003 16.3997 57.6133 18.2617C60.6602 20.1237 63.0807 22.6458 64.875 25.8281C66.7031 28.9766 67.6172 32.4974 67.6172 36.3906V41.1641C67.6172 41.4349 67.4818 41.5703 67.2109 41.5703H55.5312C55.2604 41.5703 55.125 41.4349 55.125 41.1641V36.3906C55.125 34.0885 54.3802 32.1081 52.8906 30.4492C51.401 28.7904 49.5391 27.9609 47.3047 27.9609C44.8333 27.9609 42.9375 28.8073 41.6172 30.5C40.2969 32.1927 39.6367 34.1562 39.6367 36.3906V68.8398C39.6367 71.3789 40.3815 73.4609 41.8711 75.0859C43.3607 76.6771 45.1719 77.4727 47.3047 77.4727C49.5391 77.4727 51.401 76.5924 52.8906 74.832C54.3802 73.0378 55.125 71.0404 55.125 68.8398V64.0156C55.125 63.7448 55.2604 63.6094 55.5312 63.6094H67.3125C67.5833 63.6094 67.7188 63.7448 67.7188 64.0156V68.8398C67.7188 72.7331 66.8047 76.2878 64.9766 79.5039C63.1146 82.6862 60.6602 85.2422 57.6133 87.1719C54.5664 89.0677 51.1302 90.0156 47.3047 90.0156ZM109.309 89H75.6914C75.4206 89 75.2852 88.8307 75.2852 88.4922L75.3867 17.043C75.3867 16.7721 75.5221 16.6367 75.793 16.6367H109.207C109.478 16.6367 109.613 16.806 109.613 17.1445V28.7734C109.613 29.0443 109.478 29.1797 109.207 29.1797H87.8789V45.4297H109.207C109.478 45.4297 109.613 45.5651 109.613 45.8359L109.715 57.6172C109.715 57.888 109.579 58.0234 109.309 58.0234H87.8789V76.2031H109.309C109.579 76.2031 109.715 76.3724 109.715 76.7109V88.5938C109.715 88.8646 109.579 89 109.309 89ZM131.145 89H119.363C119.092 89 118.957 88.8307 118.957 88.4922L119.16 17.043C119.16 16.7721 119.296 16.6367 119.566 16.6367H140.59C144.348 16.6367 147.801 17.5508 150.949 19.3789C154.098 21.207 156.603 23.6615 158.465 26.7422C160.361 29.8229 161.309 33.3099 161.309 37.2031C161.309 39.7422 160.919 42.0443 160.141 44.1094C159.362 46.1745 158.448 47.918 157.398 49.3398C156.383 50.7617 155.452 51.8112 154.605 52.4883C158.363 56.6523 160.242 61.5443 160.242 67.1641L160.344 88.4922C160.344 88.8307 160.174 89 159.836 89H148.055C147.784 89 147.648 88.8984 147.648 88.6953V67.1641C147.648 64.6589 146.768 62.4922 145.008 60.6641C143.247 58.8359 141.081 57.9219 138.508 57.9219H131.652L131.551 88.4922C131.551 88.8307 131.415 89 131.145 89ZM140.59 29.0781H131.652V45.4297H140.59C142.723 45.4297 144.618 44.6341 146.277 43.043C147.97 41.4518 148.816 39.5052 148.816 37.2031C148.816 35.0026 148.004 33.1068 146.379 31.5156C144.754 29.8906 142.824 29.0781 140.59 29.0781ZM191.32 89H179.59C179.285 89 179.133 88.8307 179.133 88.4922V29.1797H165.625C165.286 29.1797 165.117 29.0104 165.117 28.6719L165.219 17.043C165.219 16.7721 165.354 16.6367 165.625 16.6367H205.133C205.505 16.6367 205.691 16.7721 205.691 17.043V28.6719C205.691 29.0104 205.556 29.1797 205.285 29.1797H191.625L191.727 88.4922C191.727 88.8307 191.591 89 191.32 89ZM228.441 90.0156C224.751 90.0156 221.349 89.0677 218.234 87.1719C215.154 85.276 212.682 82.7539 210.82 79.6055C208.992 76.4232 208.078 72.9362 208.078 69.1445V64.3711C208.078 63.9987 208.247 63.8125 208.586 63.8125H220.266C220.536 63.8125 220.672 63.9987 220.672 64.3711V69.1445C220.672 71.4128 221.434 73.3763 222.957 75.0352C224.48 76.6602 226.309 77.4727 228.441 77.4727C230.608 77.4727 232.453 76.6432 233.977 74.9844C235.5 73.2917 236.262 71.3451 236.262 69.1445C236.262 66.6055 234.603 64.388 231.285 62.4922C230.743 62.1536 230.033 61.7474 229.152 61.2734C228.306 60.7656 227.29 60.1901 226.105 59.5469C224.921 58.9036 223.77 58.2773 222.652 57.668C221.535 57.0247 220.452 56.4154 219.402 55.8398C215.611 53.6055 212.784 50.8125 210.922 47.4609C209.094 44.0755 208.18 40.2839 208.18 36.0859C208.18 32.2266 209.128 28.7396 211.023 25.625C212.919 22.5443 215.391 20.1068 218.438 18.3125C221.518 16.4844 224.853 15.5703 228.441 15.5703C232.132 15.5703 235.517 16.4844 238.598 18.3125C241.678 20.1745 244.133 22.6458 245.961 25.7266C247.823 28.8073 248.754 32.2604 248.754 36.0859V44.6172C248.754 44.888 248.618 45.0234 248.348 45.0234H236.668C236.397 45.0234 236.262 44.888 236.262 44.6172L236.16 36.0859C236.16 33.6484 235.398 31.668 233.875 30.1445C232.352 28.6211 230.54 27.8594 228.441 27.8594C226.309 27.8594 224.48 28.6719 222.957 30.2969C221.434 31.9219 220.672 33.8516 220.672 36.0859C220.672 38.3542 221.146 40.25 222.094 41.7734C223.076 43.2969 224.853 44.7526 227.426 46.1406C227.697 46.276 228.323 46.6146 229.305 47.1562C230.286 47.6979 231.37 48.3073 232.555 48.9844C233.773 49.6276 234.874 50.2201 235.855 50.7617C236.837 51.2695 237.43 51.5742 237.633 51.6758C241.086 53.6055 243.811 55.9753 245.809 58.7852C247.84 61.5951 248.855 65.0482 248.855 69.1445C248.855 73.1055 247.941 76.6602 246.113 79.8086C244.251 82.957 241.78 85.4453 238.699 87.2734C235.618 89.1016 232.199 90.0156 228.441 90.0156Z" fill="#FFFF"/>
</g>
<defs>
<clipPath id="clip0_237_9">
<rect width="275" height="104" fill="white"/>
</clipPath>
</defs>
</svg>
