<svg xmlns="http://www.w3.org/2000/svg" width="48" height="48" viewBox="0 0 24 24"><g fill="none"><path fill="url(#fluentColorBookStar243)" d="M5 19h15.281S20 19.5 20 20s.281 1 .281 1H6a1 1 0 0 1-1-1z"/><path fill="url(#fluentColorBookStar244)" d="M4 4.5A2.5 2.5 0 0 1 6.5 2H18a2.5 2.5 0 0 1 2.5 2.5v14.25a.75.75 0 0 1-.75.75H5.5a1 1 0 0 0 1 1h13.25a.75.75 0 0 1 0 1.5H6.5A2.5 2.5 0 0 1 4 19.5z"/><path fill="url(#fluentColorBookStar240)" fill-opacity="0.3" d="M4 4.5A2.5 2.5 0 0 1 6.5 2H18a2.5 2.5 0 0 1 2.5 2.5v14.25a.75.75 0 0 1-.75.75H5.5a1 1 0 0 0 1 1h13.25a.75.75 0 0 1 0 1.5H6.5A2.5 2.5 0 0 1 4 19.5z"/><path fill="url(#fluentColorBookStar241)" fill-opacity="0.3" d="M4 4.5A2.5 2.5 0 0 1 6.5 2H18a2.5 2.5 0 0 1 2.5 2.5v14.25a.75.75 0 0 1-.75.75H5.5a1 1 0 0 0 1 1h13.25a.75.75 0 0 1 0 1.5H6.5A2.5 2.5 0 0 1 4 19.5z"/><path fill="url(#fluentColorBookStar242)" fill-opacity="0.3" d="M4 4.5A2.5 2.5 0 0 1 6.5 2H18a2.5 2.5 0 0 1 2.5 2.5v14.25a.75.75 0 0 1-.75.75H5.5a1 1 0 0 0 1 1h13.25a.75.75 0 0 1 0 1.5H6.5A2.5 2.5 0 0 1 4 19.5z"/><path fill="url(#fluentColorBookStar245)" d="m10.542 8.608l1.1-2.23a.678.678 0 0 1 1.216 0l1.1 2.23l2.461.357c.556.08.778.764.376 1.157l-1.78 1.735l.42 2.45a.678.678 0 0 1-.984.716l-2.201-1.157l-2.2 1.157a.678.678 0 0 1-.985-.715l.42-2.45l-1.78-1.736a.678.678 0 0 1 .376-1.157z"/><defs><radialGradient id="fluentColorBookStar240" cx="0" cy="0" r="1" gradientTransform="matrix(4 3.5 -1.30282 1.48894 12 12.5)" gradientUnits="userSpaceOnUse"><stop stop-color="#8A82E7"/><stop offset="1" stop-color="#8962B8" stop-opacity="0"/></radialGradient><radialGradient id="fluentColorBookStar241" cx="0" cy="0" r="1" gradientTransform="matrix(4.4375 -3.75 2.09822 2.4829 14 12)" gradientUnits="userSpaceOnUse"><stop stop-color="#8A82E7"/><stop offset="1" stop-color="#8962B8" stop-opacity="0"/></radialGradient><radialGradient id="fluentColorBookStar242" cx="0" cy="0" r="1" gradientTransform="rotate(139.399 3.596 8.72)scale(4.60977 2.09909)" gradientUnits="userSpaceOnUse"><stop stop-color="#8A82E7"/><stop offset="1" stop-color="#8962B8" stop-opacity="0"/></radialGradient><linearGradient id="fluentColorBookStar243" x1="12.174" x2="12.174" y1="20.4" y2="18" gradientUnits="userSpaceOnUse"><stop stop-color="#9deaff"/><stop offset=".716" stop-color="#8862B7"/></linearGradient><linearGradient id="fluentColorBookStar244" x1="9.693" x2="12.681" y1="5.742" y2="27.308" gradientUnits="userSpaceOnUse"><stop stop-color="#32AEE9"/><stop offset="1" stop-color="#2E68E3"/></linearGradient><linearGradient id="fluentColorBookStar245" x1="10.893" x2="13.647" y1="7.655" y2="17.289" gradientUnits="userSpaceOnUse"><stop stop-color="#F6D95B"/><stop offset="1" stop-color="#C97D08"/></linearGradient></defs></g></svg>