<svg width="706" height="393" viewBox="0 0 706 393" fill="none" xmlns="http://www.w3.org/2000/svg">
<path d="M350.36 359.367C389.902 359.367 421.954 327.315 421.954 287.772C421.954 248.229 389.902 216.177 350.36 216.177C310.817 216.177 278.765 248.229 278.765 287.772C278.765 327.315 310.817 359.367 350.36 359.367Z" fill="#0062AD"/>
<path d="M350.36 359.367C389.902 359.367 421.954 327.315 421.954 287.772C421.954 248.229 389.902 216.177 350.36 216.177C310.817 216.177 278.765 248.229 278.765 287.772C278.765 327.315 310.817 359.367 350.36 359.367Z" fill="url(#paint0_linear_208_36)"/>
<path d="M350.36 368.316C389.902 368.316 421.954 336.264 421.954 296.721C421.954 257.179 389.902 225.127 350.36 225.127C310.817 225.127 278.765 257.179 278.765 296.721C278.765 336.264 310.817 368.316 350.36 368.316Z" fill="#E9F0F8"/>
<path d="M345.536 253.711C345.967 252.716 346.68 251.868 347.587 251.273C348.494 250.678 349.555 250.36 350.639 250.36C351.724 250.36 352.785 250.678 353.692 251.273C354.598 251.868 355.311 252.716 355.743 253.711L363.69 271.788C363.889 272.277 364.222 272.699 364.65 273.008C365.078 273.316 365.584 273.498 366.11 273.534L385.978 275.203C387.076 275.306 388.119 275.731 388.977 276.424C389.834 277.117 390.468 278.049 390.799 279.101C391.129 280.153 391.142 281.279 390.835 282.339C390.529 283.398 389.916 284.343 389.074 285.056L374.219 297.406C373.794 297.754 373.479 298.216 373.31 298.738C373.141 299.26 373.126 299.82 373.265 300.35L377.754 318.938C378.005 320 377.94 321.112 377.568 322.137C377.196 323.163 376.532 324.058 375.659 324.712C374.786 325.366 373.74 325.75 372.651 325.818C371.562 325.886 370.477 325.635 369.529 325.095L351.854 314.964C351.413 314.709 350.912 314.575 350.402 314.575C349.892 314.575 349.391 314.709 348.95 314.964L331.275 325.095C330.33 325.644 329.244 325.902 328.153 325.837C327.062 325.772 326.014 325.387 325.14 324.73C324.267 324.073 323.606 323.174 323.241 322.144C322.876 321.113 322.822 319.998 323.087 318.938L327.579 300.35C327.7 299.816 327.671 299.259 327.496 298.741C327.321 298.222 327.006 297.762 326.586 297.41L311.73 285.056C310.889 284.34 310.278 283.391 309.974 282.329C309.671 281.267 309.687 280.139 310.022 279.086C310.358 278.034 310.996 277.104 311.858 276.413C312.72 275.722 313.766 275.301 314.867 275.203L334.73 273.534C335.259 273.493 335.768 273.309 336.202 273.001C336.635 272.694 336.977 272.275 337.191 271.788L345.536 253.711Z" fill="url(#paint1_linear_208_36)"/>
<path d="M455.067 282.716C455.733 281.285 456.009 279.704 455.868 278.133C455.727 276.561 455.172 275.055 454.261 273.766L446.968 263.609C445.757 261.921 445.172 259.864 445.312 257.792L446.162 245.307C446.266 243.717 445.943 242.128 445.228 240.704C444.512 239.28 443.429 238.073 442.09 237.208L431.62 230.362C429.908 229.199 428.632 227.498 427.995 225.529L424.281 213.582C423.805 212.062 422.932 210.697 421.752 209.627C420.572 208.557 419.128 207.822 417.569 207.496L405.353 204.856C403.321 204.427 401.502 203.303 400.207 201.679L392.421 191.88C391.43 190.632 390.124 189.671 388.637 189.096C387.15 188.522 385.537 188.355 383.964 188.613L371.614 190.627C369.561 190.938 367.463 190.544 365.663 189.508L354.879 183.199C353.519 182.414 351.975 182 350.404 182C348.833 182 347.29 182.414 345.93 183.199L335.146 189.508C333.346 190.544 331.248 190.938 329.194 190.627L316.844 188.613C315.272 188.355 313.658 188.522 312.172 189.096C310.685 189.671 309.378 190.632 308.387 191.88L300.601 201.679C299.307 203.303 297.487 204.427 295.455 204.856L283.24 207.496C281.681 207.822 280.237 208.557 279.057 209.627C277.877 210.697 277.004 212.062 276.528 213.582L272.814 225.529C272.176 227.498 270.901 229.199 269.189 230.362L258.718 237.208C257.38 238.073 256.297 239.28 255.581 240.704C254.865 242.128 254.543 243.717 254.647 245.307L255.497 257.792C255.637 259.864 255.051 261.921 253.841 263.609L246.547 273.766C245.636 275.054 245.082 276.561 244.94 278.132C244.799 279.704 245.075 281.285 245.742 282.716L251.022 294.081C251.903 295.953 252.109 298.071 251.604 300.077L248.471 312.204C248.076 313.739 248.095 315.352 248.528 316.877C248.96 318.402 249.79 319.785 250.933 320.884L259.882 329.565C261.378 331.004 262.327 332.918 262.567 334.98L264.043 347.419C264.232 348.997 264.837 350.495 265.796 351.761C266.756 353.027 268.035 354.015 269.502 354.623L281.047 359.411C282.966 360.208 284.548 361.648 285.522 363.483L291.384 374.58C292.13 375.983 293.236 377.162 294.589 377.995C295.941 378.829 297.492 379.287 299.08 379.324L311.564 379.637C313.641 379.691 315.634 380.466 317.202 381.829L326.689 390.018C327.896 391.069 329.363 391.777 330.937 392.068C332.511 392.36 334.135 392.223 335.638 391.674L347.406 387.467C349.373 386.757 351.526 386.757 353.492 387.467L365.26 391.674C366.764 392.223 368.387 392.36 369.961 392.068C371.535 391.777 373.002 391.069 374.21 390.018L383.696 381.829C385.264 380.466 387.257 379.691 389.334 379.637L401.818 379.324C403.407 379.287 404.957 378.829 406.309 377.995C407.662 377.162 408.768 375.983 409.515 374.58L415.242 363.26C416.213 361.42 417.793 359.98 419.717 359.188L431.262 354.4C432.729 353.791 434.008 352.804 434.967 351.537C435.927 350.271 436.532 348.773 436.721 347.195L438.197 334.756C438.434 332.693 439.383 330.773 440.882 329.342L449.831 320.661C450.974 319.561 451.804 318.178 452.236 316.653C452.668 315.128 452.688 313.515 452.292 311.98L449.16 299.854C448.655 297.848 448.861 295.729 449.742 293.857L455.067 282.716ZM350.36 359.456C336.2 359.456 322.357 355.257 310.584 347.39C298.81 339.523 289.634 328.342 284.215 315.26C278.796 302.177 277.378 287.782 280.141 273.894C282.903 260.006 289.722 247.249 299.735 237.236C309.747 227.224 322.504 220.405 336.392 217.642C350.28 214.88 364.675 216.298 377.758 221.717C390.84 227.135 402.021 236.312 409.888 248.086C417.755 259.859 421.954 273.701 421.954 287.861C421.919 306.826 414.36 325.002 400.937 338.4C387.515 351.797 369.324 359.322 350.36 359.322V359.456Z" fill="url(#paint2_linear_208_36)"/>
<path d="M285.78 150.924C284.184 149.448 282.312 148.303 280.272 147.555C278.231 146.808 276.062 146.472 273.891 146.568C266.277 146.827 258.676 147.213 251.087 147.726L240.102 95.0287C239.193 90.6196 236.925 86.6063 233.617 83.5526C230.309 80.499 226.128 78.5585 221.66 78.0039L221.493 77.9876L221.327 78.0223L143.546 71.14C140.028 70.7204 136.466 70.8765 132.998 71.6021C129.533 72.3219 126.208 73.6015 123.154 75.3907L54.5868 112.759L54.4204 112.794L54.274 112.876C50.4045 115.166 47.349 118.611 45.5359 122.726C43.7227 126.841 43.2429 131.42 44.1637 135.822L55.1486 188.519C47.9888 191.087 40.8664 193.771 33.7817 196.569C31.753 197.348 29.899 198.522 28.3269 200.023C26.7549 201.524 25.496 203.321 24.6231 205.311C23.904 206.964 23.5236 208.745 23.5045 210.547C23.4855 212.349 23.8281 214.137 24.5121 215.805L46.992 269.743C48.5027 273.228 51.3091 275.99 54.8184 277.445C58.3277 278.9 62.265 278.933 65.7987 277.539C68.2522 276.568 70.7117 275.626 73.1811 274.682C76.2502 288.67 84.4436 301.171 97.5783 311.846C107.597 319.972 120.544 327.1 136.037 332.962C152.488 339.094 169.551 343.438 186.932 345.919L190.371 346.346L193.338 344.553C208.228 335.211 222.092 324.326 234.701 312.078C246.57 300.411 255.554 288.772 261.478 277.353C269.263 262.359 271.809 247.722 269.079 233.888C271.719 233.766 274.35 233.647 276.987 233.557C277.818 233.526 278.644 233.425 279.458 233.256C282.76 232.572 285.723 230.768 287.847 228.149C289.97 225.53 291.123 222.258 291.111 218.886L290.123 160.489C290.076 158.685 289.667 156.909 288.921 155.266C288.175 153.623 287.107 152.146 285.78 150.924Z" fill="#002050"/>
<path d="M82.585 270.791L82.8584 272.103C93.7413 324.311 188.118 336.028 188.118 336.028C188.118 336.028 269.792 286.806 259.071 235.371L258.887 234.49C198.692 238.142 139.326 250.366 82.585 270.791Z" fill="#0064B5"/>
<path d="M240.958 148.479L230.32 97.4459C229.832 95.0931 228.621 92.9516 226.857 91.3212C225.092 89.6908 222.861 88.653 220.477 88.3531L142.584 81.4737C137.581 80.8549 132.513 81.9113 128.174 84.4775L59.4583 121.918C57.4014 123.15 55.7804 124.994 54.8212 127.192C53.862 129.389 53.6126 131.832 54.1075 134.178L64.7455 185.211C121.717 165.65 180.916 153.31 240.958 148.479Z" fill="white"/>
<path d="M104.065 158.219C103.069 158.989 101.899 159.503 100.659 159.716C99.8487 159.922 99.0043 159.953 98.1814 159.807C97.3585 159.662 96.576 159.343 95.8859 158.872C94.4903 157.833 93.5536 156.292 93.274 154.574C93.0444 153.668 92.9986 152.725 93.1393 151.801C93.28 150.877 93.6044 149.991 94.0933 149.194C94.5649 148.431 95.1913 147.775 95.9321 147.269C96.6728 146.762 97.5115 146.417 98.3939 146.255C99.4272 146.004 100.501 145.968 101.549 146.149L101.883 147.754C100.84 147.438 99.7343 147.395 98.6698 147.627C97.9928 147.74 97.3482 147.998 96.7797 148.383C96.2112 148.767 95.7323 149.27 95.3754 149.856C94.6537 151.133 94.4516 152.638 94.8113 154.06C95.0248 155.445 95.7684 156.693 96.8851 157.54C97.411 157.912 98.0108 158.167 98.6439 158.287C99.2771 158.408 99.9286 158.39 100.554 158.236C101.74 158.036 102.847 157.512 103.753 156.721L104.065 158.219ZM117.324 156.017L110.472 157.445L107.788 144.572L114.328 143.209L114.613 144.579L109.611 145.622L110.503 149.9L115.153 148.931L115.436 150.292L110.786 151.261L111.725 155.764L117.041 154.656L117.324 156.017ZM132.714 152.809L130.922 153.182L128.017 150.029C127.784 149.763 127.531 149.515 127.26 149.288C127.051 149.106 126.82 148.952 126.572 148.829C126.349 148.726 126.111 148.658 125.866 148.628C125.607 148.609 125.346 148.629 125.092 148.688L123.849 148.947L124.99 154.419L123.482 154.733L120.799 141.86L124.646 141.058C125.171 140.942 125.711 140.906 126.247 140.949C126.727 140.98 127.195 141.109 127.623 141.326C128.035 141.547 128.392 141.856 128.67 142.232C129.211 143.03 129.445 143.997 129.33 144.954C129.275 145.339 129.152 145.711 128.966 146.052C128.771 146.402 128.519 146.717 128.22 146.983C127.897 147.28 127.532 147.528 127.138 147.72C127.355 147.765 127.566 147.838 127.765 147.936C127.961 148.026 128.145 148.138 128.315 148.271C128.505 148.419 128.685 148.579 128.854 148.751C129.046 148.936 129.254 149.148 129.489 149.395L132.714 152.809ZM122.592 142.916L123.563 147.576L125.609 147.15C125.967 147.084 126.311 146.954 126.622 146.765C126.907 146.595 127.156 146.37 127.352 146.102C127.547 145.836 127.678 145.529 127.737 145.205C127.808 144.848 127.801 144.48 127.717 144.126C127.674 143.821 127.562 143.53 127.388 143.276C127.215 143.021 126.985 142.81 126.716 142.659C126.068 142.348 125.328 142.288 124.638 142.49L122.592 142.916ZM142.563 138.753L138.843 139.529L141.24 151.032L139.733 151.346L137.335 139.843L133.625 140.617L133.339 139.246L142.277 137.383L142.563 138.753ZM152.146 148.758L150.629 149.075L147.945 136.201L149.462 135.885L152.146 148.758ZM163.385 134.413L158.353 135.462L159.282 139.916L163.932 138.947L164.213 140.298L159.563 141.267L160.751 146.965L159.243 147.279L156.56 134.406L163.099 133.042L163.385 134.413ZM173.409 144.326L171.901 144.64L169.218 131.767L170.725 131.453L173.409 144.326ZM187.31 141.428L180.457 142.857L177.774 129.983L184.313 128.62L184.599 129.991L179.577 131.038L180.469 135.316L185.119 134.346L185.402 135.707L180.752 136.676L181.691 141.18L187.007 140.072L187.31 141.428ZM193.468 140.145L190.784 127.271L194.338 126.531C198.906 125.578 201.627 127.194 202.499 131.377C202.722 132.257 202.758 133.173 202.605 134.067C202.452 134.961 202.113 135.813 201.609 136.568C200.488 138.104 198.802 139.131 196.923 139.424L193.468 140.145ZM192.578 128.328L194.692 138.47L196.65 138.061C197.368 137.955 198.059 137.708 198.682 137.334C199.306 136.961 199.849 136.468 200.282 135.884C200.668 135.277 200.923 134.595 201.03 133.883C201.136 133.171 201.093 132.445 200.901 131.751C200.214 128.452 198.119 127.224 194.614 127.954L192.578 128.328ZM109.062 132.794L105.205 133.598L103.046 123.241C102.813 122.125 102.554 120.882 102.419 119.5L102.321 119.521C102.353 120.325 102.334 121.131 102.262 121.933L100.658 134.526L97.4667 135.191L90.8916 124.426C90.4977 123.679 90.1464 122.91 89.8394 122.122L89.7317 122.145C90.1965 123.836 90.5576 125.323 90.825 126.606L92.8207 136.18L89.3356 136.906L85.7318 119.618L91.4392 118.428L97.1216 127.949C97.557 128.698 97.9319 129.481 98.2428 130.289L98.3113 130.275C98.3226 129.251 98.3902 128.4 98.4762 127.636L99.8876 116.667L105.458 115.506L109.062 132.794ZM111.562 117.298C110.983 117.441 110.371 117.353 109.856 117.051C109.621 116.915 109.418 116.731 109.261 116.51C109.104 116.289 108.996 116.036 108.945 115.77C108.882 115.507 108.879 115.233 108.935 114.969C108.991 114.705 109.106 114.456 109.27 114.241C109.652 113.797 110.17 113.492 110.744 113.372C111.317 113.253 111.914 113.326 112.442 113.58C112.675 113.714 112.877 113.898 113.032 114.118C113.187 114.338 113.292 114.589 113.341 114.854C113.404 115.12 113.41 115.397 113.356 115.665C113.303 115.934 113.192 116.188 113.032 116.409C112.673 116.883 112.147 117.201 111.562 117.298ZM116.425 131.219L112.607 132.014L110.032 119.66L113.85 118.864L116.425 131.219ZM128.919 128.185C127.877 128.989 126.646 129.513 125.344 129.707C124.507 129.921 123.635 129.964 122.781 129.833C121.927 129.702 121.109 129.4 120.374 128.945C119.667 128.487 119.063 127.888 118.6 127.184C118.136 126.481 117.824 125.688 117.683 124.858C117.445 123.955 117.397 123.012 117.544 122.089C117.692 121.166 118.03 120.285 118.538 119.501C119.086 118.737 119.781 118.09 120.581 117.597C121.381 117.104 122.272 116.775 123.2 116.629C124.274 116.326 125.408 116.3 126.495 116.555L127.168 119.786C126.278 119.362 125.273 119.244 124.31 119.452C123.827 119.528 123.365 119.703 122.952 119.965C122.54 120.226 122.185 120.57 121.91 120.974C121.455 121.824 121.308 122.804 121.492 123.75C121.676 124.696 122.181 125.549 122.921 126.167C123.323 126.416 123.771 126.58 124.239 126.649C124.707 126.719 125.183 126.692 125.64 126.57C126.635 126.349 127.542 125.837 128.245 125.098L128.919 128.185ZM137.707 117.517C137.159 117.357 136.578 117.341 136.022 117.47C135.642 117.529 135.282 117.679 134.973 117.909C134.665 118.139 134.418 118.441 134.254 118.789C133.9 119.621 133.834 120.548 134.067 121.422L135.292 127.296L131.493 128.088L128.916 115.724L132.724 114.93L133.204 117.23C133.231 116.467 133.517 115.736 134.014 115.155C134.51 114.575 135.189 114.18 135.939 114.035C136.268 113.946 136.612 113.927 136.949 113.978L137.707 117.517ZM147.232 125.185C146.354 125.427 145.436 125.49 144.533 125.369C143.631 125.249 142.762 124.947 141.978 124.482C141.244 123.989 140.621 123.348 140.147 122.601C139.673 121.854 139.359 121.017 139.225 120.143C138.993 119.269 138.947 118.356 139.092 117.463C139.237 116.57 139.569 115.718 140.065 114.962C141.173 113.473 142.823 112.479 144.657 112.197C145.527 111.963 146.434 111.907 147.325 112.032C148.217 112.156 149.074 112.46 149.845 112.924C150.562 113.402 151.173 114.024 151.639 114.749C152.105 115.475 152.416 116.289 152.552 117.14C152.791 118.025 152.845 118.95 152.711 119.857C152.576 120.763 152.257 121.633 151.771 122.41C151.238 123.152 150.562 123.78 149.782 124.256C149.002 124.733 148.135 125.049 147.232 125.185ZM145.238 115.13C144.834 115.192 144.451 115.348 144.119 115.585C143.786 115.823 143.515 116.136 143.327 116.499C142.95 117.376 142.88 118.356 143.13 119.278C143.625 121.653 144.829 122.642 146.741 122.243C148.654 121.845 149.314 120.437 148.721 118.02C148.215 115.688 147.041 114.714 145.201 115.097L145.238 115.13ZM155.473 122.772L154.83 119.689C155.495 119.921 156.185 120.072 156.885 120.139C157.496 120.196 158.113 120.164 158.714 120.044C159.265 119.955 159.79 119.748 160.253 119.437C160.412 119.337 160.536 119.191 160.61 119.019C160.683 118.847 160.703 118.656 160.665 118.473C160.643 118.358 160.597 118.249 160.53 118.154C160.462 118.059 160.375 117.979 160.274 117.921C160.033 117.788 159.772 117.694 159.501 117.643C159.178 117.579 158.852 117.534 158.523 117.509C158.172 117.486 157.822 117.443 157.475 117.381C156.991 117.312 156.514 117.203 156.048 117.055C155.645 116.941 155.262 116.762 154.916 116.525C154.602 116.292 154.337 116 154.135 115.666C153.901 115.271 153.738 114.839 153.654 114.387C153.509 113.765 153.54 113.115 153.742 112.51C153.935 111.949 154.261 111.443 154.691 111.035C155.171 110.598 155.725 110.251 156.327 110.01C156.96 109.721 157.624 109.503 158.306 109.362C158.864 109.25 159.429 109.177 159.997 109.143C160.577 109.116 161.159 109.124 161.739 109.168L162.351 112.104C161.806 111.918 161.237 111.813 160.662 111.793C160.106 111.768 159.549 111.812 159.004 111.924C158.767 111.971 158.535 112.04 158.311 112.129C158.115 112.21 157.931 112.317 157.764 112.448C157.623 112.556 157.509 112.695 157.43 112.854C157.361 113.008 157.343 113.18 157.379 113.345C157.424 113.557 157.543 113.746 157.715 113.878C157.915 114.011 158.136 114.11 158.369 114.171C158.647 114.243 158.931 114.294 159.217 114.321L160.128 114.427C160.631 114.491 161.129 114.589 161.619 114.719C162.046 114.834 162.454 115.011 162.831 115.242C163.182 115.455 163.482 115.741 163.711 116.081C163.968 116.476 164.143 116.919 164.227 117.383C164.384 118.033 164.356 118.715 164.147 119.35C163.941 119.937 163.595 120.465 163.14 120.888C162.646 121.341 162.081 121.711 161.468 121.983C160.794 122.277 160.09 122.499 159.369 122.645C158.088 122.914 156.769 122.957 155.473 122.772ZM173.184 119.775C172.306 120.018 171.388 120.08 170.486 119.959C169.583 119.839 168.714 119.537 167.93 119.073C167.199 118.576 166.578 117.935 166.106 117.188C165.634 116.441 165.321 115.604 165.187 114.731C164.953 113.858 164.906 112.946 165.049 112.053C165.192 111.161 165.522 110.309 166.017 109.553C167.129 108.062 168.782 107.069 170.619 106.785C171.489 106.553 172.396 106.498 173.287 106.622C174.178 106.747 175.035 107.05 175.807 107.512C176.521 107.993 177.129 108.615 177.593 109.341C178.057 110.067 178.368 110.88 178.504 111.73C178.743 112.615 178.797 113.54 178.663 114.447C178.529 115.353 178.209 116.223 177.723 117C177.19 117.742 176.514 118.37 175.734 118.847C174.955 119.323 174.088 119.639 173.184 119.775ZM171.19 109.72C170.788 109.781 170.406 109.937 170.075 110.175C169.745 110.412 169.475 110.725 169.289 111.087C168.903 111.963 168.83 112.945 169.082 113.868C169.578 116.244 170.785 117.231 172.703 116.831C174.622 116.431 175.279 115.024 174.673 112.611C174.186 110.274 173.023 109.298 171.182 109.681L171.19 109.72ZM186.826 100.588C186.34 100.497 185.841 100.5 185.357 100.598C184.133 100.853 183.663 101.635 183.934 102.937L184.198 104.2L187.017 103.612L187.605 106.432L184.785 107.019L186.775 116.564L182.967 117.358L180.983 107.843L178.908 108.275L178.314 105.426L180.389 104.994L180.077 103.496C179.922 102.868 179.902 102.215 180.02 101.579C180.137 100.943 180.39 100.34 180.759 99.8092C181.601 98.6923 182.847 97.9488 184.229 97.7375C184.886 97.5784 185.564 97.5233 186.238 97.5741L186.826 100.588ZM199.35 113.82C198.617 114.327 197.777 114.66 196.896 114.792C194.207 115.352 192.572 114.239 191.991 111.452L190.812 105.794L188.805 106.212L188.211 103.363L190.218 102.945L189.669 100.312L193.241 98.4332L194.016 102.153L196.797 101.574L197.384 104.393L194.604 104.973L195.649 109.985C195.916 111.267 196.566 111.837 197.594 111.622C198.03 111.521 198.432 111.31 198.764 111.011L199.35 113.82Z" fill="#17154C"/>
<path d="M172.854 262.802L181.11 277.221L197.381 273.829L186.207 286.138L194.463 300.557L179.303 293.737L168.129 306.046L169.937 289.53L154.776 282.71L171.047 279.319L172.854 262.802Z" fill="white"/>
<path d="M285.78 150.924C284.184 149.448 282.312 148.303 280.272 147.555C278.231 146.808 276.062 146.472 273.891 146.568C262.888 146.969 251.91 147.606 240.958 148.479C180.889 153.309 121.663 165.654 64.6672 185.227C54.3239 188.793 44.0321 192.59 33.7919 196.617C31.7632 197.397 29.9092 198.571 28.3371 200.072C26.7651 201.573 25.5062 203.37 24.6333 205.36C23.9142 207.013 23.5338 208.793 23.5147 210.596C23.4957 212.398 23.8383 214.186 24.5223 215.854L47.0022 269.791C48.5129 273.277 51.3193 276.039 54.8286 277.494C58.3379 278.948 62.2752 278.982 65.8089 277.588C72.3463 275.006 78.9205 272.536 85.5317 270.177C142.347 249.876 201.767 237.786 261.998 234.271C266.995 233.971 271.992 233.737 276.99 233.567C277.82 233.535 278.646 233.435 279.46 233.266C282.762 232.582 285.725 230.777 287.849 228.159C289.972 225.54 291.125 222.267 291.113 218.896L290.125 160.498C290.079 158.693 289.67 156.915 288.924 155.27C288.177 153.626 287.108 152.147 285.78 150.924Z" fill="#505050"/>
<path d="M274.092 152.287C192.444 155.129 111.885 171.922 35.9022 201.939C34.5831 202.439 33.3762 203.196 32.351 204.165C31.3258 205.135 30.5027 206.297 29.929 207.586C29.5062 208.538 29.2781 209.564 29.2583 210.605C29.2384 211.646 29.4272 212.681 29.8134 213.648L52.2872 267.556C53.2087 269.666 54.9157 271.335 57.0466 272.209C59.1774 273.082 61.5646 273.091 63.7023 272.235C131.673 245.374 203.741 230.351 276.782 227.818C279.073 227.732 281.242 226.764 282.837 225.116C284.431 223.468 285.327 221.269 285.338 218.976L284.344 160.6C284.318 159.558 284.082 158.532 283.651 157.583C283.22 156.634 282.602 155.781 281.834 155.076C280.792 154.123 279.571 153.386 278.242 152.907C276.913 152.428 275.503 152.218 274.092 152.287Z" fill="white"/>
<path d="M66.1833 224.157L60.1996 226.324L61.7024 230.495L67.211 228.499L68.3286 231.606L62.818 233.592L65.2152 240.192L61.4157 241.566L55.2804 224.581L65.0637 221.04L66.1833 224.157ZM85.9772 225.026C87.6247 230.185 86.0417 233.535 81.2283 235.077C76.5543 236.568 73.4124 234.792 71.8025 229.748L68.6291 219.817L72.5179 218.577L75.7114 228.555C76.5968 231.333 78.1234 232.384 80.3064 231.683C82.4894 230.983 83.0722 229.319 82.2169 226.637L78.983 216.514L82.8132 215.287L85.9772 225.026ZM108.142 226.78L104.199 227.908L93.903 219.043C93.3045 218.524 92.8835 218.121 92.6322 217.847C92.9811 218.759 93.2806 219.688 93.5295 220.632L96.2449 230.179L92.5505 231.225L87.6145 213.867L91.8293 212.672L101.725 221.284C102.173 221.67 102.602 222.061 102.992 222.46C102.686 221.692 102.427 220.907 102.215 220.109L99.4798 210.464L103.172 209.408L108.142 226.78ZM112.488 225.629L108.002 208.177L114.199 206.589C120.409 204.988 124.241 207.032 125.692 212.723C126.058 213.913 126.171 215.167 126.022 216.403C125.873 217.639 125.467 218.83 124.829 219.9C124.129 220.966 123.226 221.883 122.171 222.599C121.116 223.315 119.93 223.816 118.681 224.072L112.488 225.629ZM112.752 210.333L115.604 221.414L117.543 220.918C118.293 220.769 119.004 220.464 119.628 220.023C120.252 219.581 120.776 219.013 121.166 218.355C121.894 216.944 122.033 215.303 121.553 213.79C121.409 213.058 121.116 212.363 120.693 211.748C120.269 211.134 119.725 210.613 119.092 210.217C118.419 209.858 117.68 209.637 116.92 209.57C116.16 209.502 115.394 209.587 114.668 209.821L112.752 210.333ZM146.391 217.295L142.076 218.307L139.899 214.674L133.647 216.141L133.318 220.296L129.033 221.301L131.299 202.228L135.991 201.117L146.391 217.295ZM138.276 211.836L135.006 206.389C134.729 205.912 134.504 205.408 134.334 204.884L134.227 204.906C134.306 205.437 134.326 205.974 134.285 206.508L133.772 212.918L138.276 211.836ZM169.127 212.433L165.211 213.249L163.005 202.667C162.769 201.531 162.505 200.268 162.355 198.859L162.257 198.88C162.291 199.698 162.271 200.518 162.196 201.334L160.604 214.23L157.354 214.907L150.618 203.911C150.217 203.151 149.857 202.37 149.538 201.572L149.431 201.594C149.912 203.312 150.289 204.827 150.562 206.139L152.603 215.929L149.01 216.677L145.262 199.041L151.087 197.827L156.92 207.531C157.383 208.29 157.772 209.091 158.083 209.924L158.161 209.908C158.166 209.005 158.221 208.104 158.323 207.208L159.715 195.998L165.393 194.814L169.127 212.433ZM184.225 209.541L173.596 211.624L170.187 193.897L180.41 191.929L181.039 195.189L174.812 196.385L175.56 200.315L181.364 199.197L181.988 202.438L176.184 203.556L176.968 207.611L183.608 206.34L184.225 209.541ZM203.519 206.152L199.467 206.854L190.196 196.927C189.791 196.507 189.409 196.065 189.052 195.603L189.648 198.461L191.339 208.242L187.554 208.898L184.487 191.151L188.796 190.406L197.735 200.014C198.142 200.45 198.526 200.87 198.883 201.307L198.853 201.313C198.629 200.516 198.46 199.705 198.347 198.885L196.639 189.026L200.425 188.37L203.519 206.152ZM218.322 188.96L213.223 189.737L215.444 204.31L211.405 204.927L209.194 190.352L204.125 191.123L203.626 187.846L217.825 185.693L218.322 188.96ZM237.337 201.33L232.94 201.899L231.125 198.089L224.761 198.926L224.022 203.074L219.657 203.646L223.828 184.891L228.6 184.264L237.337 201.33ZM229.82 195.113L227.106 189.346C226.88 188.843 226.708 188.317 226.595 187.777L226.497 187.797C226.523 188.335 226.488 188.873 226.392 189.402L225.273 195.744L229.82 195.113ZM250.666 199.951L239.968 201.067L238.087 183.073L242.135 182.648L243.662 197.325L250.311 196.633L250.666 199.951ZM252.589 199.08L252.291 195.056C253.765 196.129 255.57 196.649 257.389 196.527C257.838 196.488 258.282 196.395 258.71 196.252C259.043 196.157 259.357 196.005 259.638 195.803C259.865 195.643 260.048 195.429 260.172 195.181C260.28 194.952 260.326 194.7 260.306 194.448C260.29 194.101 260.16 193.769 259.935 193.504C259.681 193.223 259.383 192.985 259.053 192.799C258.642 192.565 258.211 192.367 257.765 192.209C257.277 192.025 256.739 191.841 256.17 191.663C254.932 191.3 253.799 190.642 252.87 189.746C252.111 188.927 251.666 187.866 251.612 186.75C251.519 185.948 251.636 185.136 251.952 184.393C252.268 183.65 252.773 183.002 253.415 182.513C254.073 182.014 254.813 181.634 255.603 181.393C256.473 181.117 257.374 180.946 258.285 180.885C259.121 180.819 259.96 180.815 260.796 180.872C261.486 180.928 262.169 181.053 262.834 181.244L263.108 185.007C262.785 184.813 262.444 184.651 262.088 184.525C261.734 184.389 261.37 184.281 260.999 184.201C260.622 184.123 260.239 184.073 259.855 184.051C259.514 184.028 259.172 184.024 258.831 184.04C258.408 184.078 257.99 184.165 257.587 184.299C257.255 184.393 256.941 184.541 256.657 184.738C256.427 184.897 256.236 185.109 256.102 185.355C255.973 185.586 255.918 185.85 255.943 186.113C255.959 186.402 256.063 186.68 256.242 186.909C256.442 187.16 256.687 187.372 256.964 187.534C257.326 187.751 257.706 187.935 258.101 188.084C258.535 188.259 259.021 188.434 259.568 188.606C260.256 188.837 260.927 189.113 261.579 189.433C262.14 189.708 262.662 190.056 263.133 190.467C263.57 190.86 263.925 191.334 264.18 191.863C264.468 192.472 264.63 193.133 264.656 193.807C264.753 194.683 264.621 195.569 264.273 196.379C263.951 197.078 263.46 197.686 262.844 198.148C262.178 198.641 261.426 199.005 260.627 199.223C259.74 199.477 258.829 199.639 257.909 199.708C256.962 199.776 256.012 199.759 255.068 199.656C254.217 199.593 253.381 199.398 252.589 199.08Z" fill="#282828"/>
<path d="M674.961 223.653C674.191 221.621 673.026 219.761 671.533 218.181C670.04 216.602 668.249 215.334 666.263 214.452C659.333 211.288 652.358 208.242 645.337 205.316L659.011 153.252C660.164 148.9 659.924 144.297 658.326 140.088C656.727 135.88 653.851 132.278 650.099 129.789L649.957 129.7L649.793 129.656L583.248 88.8023C580.287 86.8577 577.029 85.4084 573.602 84.5111C570.179 83.6096 566.633 83.2717 563.101 83.5109L485.065 86.3715L484.9 86.3283L484.733 86.3361C480.248 86.6604 475.977 88.3802 472.519 91.2544C469.06 94.1287 466.588 98.0131 465.449 102.363L451.775 154.427C444.221 153.533 436.65 152.757 429.061 152.101C426.897 151.894 424.714 152.118 422.638 152.76C420.562 153.402 418.633 154.449 416.964 155.841C415.583 156.999 414.449 158.423 413.628 160.028C412.807 161.632 412.316 163.385 412.184 165.183L408.245 223.485C408.042 227.278 409.322 231.002 411.814 233.869C414.306 236.737 417.815 238.523 421.599 238.851C424.228 239.077 426.85 239.331 429.481 239.588C425.988 253.476 427.745 268.319 434.74 283.732C440.082 295.474 448.49 307.628 459.741 319.785C471.73 332.612 485.064 344.111 499.513 354.083L502.401 356L505.856 355.718C523.35 353.999 540.614 350.441 557.362 345.104C573.189 339.955 586.421 333.546 596.817 325.969C610.472 316.021 619.28 304.056 623.007 290.457C625.425 291.526 627.833 292.593 630.233 293.688C630.99 294.031 631.775 294.31 632.578 294.522C635.838 295.382 639.296 295.089 642.364 293.692C645.433 292.295 647.925 289.881 649.418 286.858L674.582 234.151C675.344 232.516 675.77 230.744 675.835 228.941C675.9 227.137 675.603 225.339 674.961 223.653Z" fill="#002050"/>
<path d="M439.633 240.3L439.293 241.596C425.745 293.177 504.987 345.761 504.987 345.761C504.987 345.761 600.042 338.137 613.388 287.32L613.619 286.44C558.114 262.862 499.528 247.325 439.633 240.3Z" fill="#0064B5"/>
<path d="M485.942 260.692L486.736 274.518L500.141 278.038L487.231 283.064L488.025 296.889L479.251 286.168L466.341 291.194L473.826 279.543L465.051 268.822L478.457 272.343L485.942 260.692ZM563.63 280.062L564.424 293.888L577.819 297.406L564.919 302.434L565.713 316.259L556.939 305.538L544.029 310.564L551.514 298.913L542.739 288.192L556.145 291.713L563.63 280.062ZM521.638 282.361L522.516 297.562L537.256 301.434L523.054 306.968L523.931 322.169L514.279 310.381L500.08 315.905L508.314 303.096L498.664 291.298L513.405 295.17L521.638 282.361ZM508.955 149.098C507.723 149.345 506.45 149.284 505.248 148.92C504.431 148.744 503.661 148.396 502.989 147.898C502.318 147.401 501.76 146.766 501.353 146.036C500.559 144.486 500.405 142.686 500.922 141.022C501.121 140.109 501.501 139.245 502.039 138.48C502.577 137.716 503.263 137.067 504.056 136.572C504.82 136.1 505.675 135.792 506.565 135.67C507.456 135.548 508.362 135.613 509.226 135.862C510.259 136.098 511.233 136.544 512.087 137.172L511.655 138.816C510.868 138.06 509.897 137.523 508.838 137.26C508.181 137.06 507.49 137.004 506.809 137.095C506.129 137.186 505.476 137.421 504.895 137.785C503.686 138.612 502.839 139.868 502.525 141.298C502.088 142.644 502.193 144.108 502.818 145.377C503.124 145.946 503.548 146.443 504.063 146.834C504.578 147.224 505.171 147.499 505.802 147.639C506.957 147.975 508.184 147.982 509.343 147.659L508.955 149.098ZM521.785 153.036L515.015 151.258L518.355 138.539L524.845 140.244L524.489 141.598L519.518 140.292L518.408 144.519L523.002 145.725L522.649 147.07L518.055 145.863L516.886 150.312L522.138 151.692L521.785 153.036ZM536.98 157.027L535.2 156.559L534.046 152.451C533.953 152.11 533.837 151.776 533.699 151.45C533.595 151.193 533.457 150.952 533.287 150.732C533.139 150.542 532.958 150.378 532.752 150.251C532.526 150.114 532.282 150.011 532.026 149.946L530.807 149.626L529.387 155.033L527.898 154.642L531.238 141.923L535.029 142.919C535.555 143.05 536.058 143.258 536.521 143.538C536.932 143.781 537.29 144.103 537.575 144.487C537.849 144.865 538.032 145.302 538.108 145.764C538.231 146.719 538.013 147.687 537.493 148.497C537.266 148.815 536.988 149.091 536.668 149.315C536.337 149.544 535.97 149.716 535.583 149.826C535.164 149.94 534.732 149.997 534.298 149.995C534.472 150.132 534.629 150.292 534.763 150.469C534.895 150.636 535.007 150.818 535.096 151.011C535.205 151.231 535.298 151.459 535.372 151.693L535.645 152.541L536.98 157.027ZM532.333 143.658L531.122 148.271L533.143 148.802C533.495 148.899 533.86 148.932 534.224 148.9C534.555 148.88 534.879 148.788 535.173 148.632C535.465 148.48 535.719 148.264 535.918 148.001C536.136 147.71 536.293 147.379 536.38 147.027C536.474 146.734 536.501 146.424 536.459 146.12C536.417 145.815 536.308 145.524 536.139 145.268C535.697 144.701 535.062 144.317 534.355 144.189L532.333 143.658ZM552.083 148.845L548.408 147.88L545.423 159.244L543.924 158.851L546.909 147.486L543.243 146.523L543.599 145.169L552.439 147.491L552.083 148.845ZM556.217 162.079L554.728 161.688L558.068 148.97L559.558 149.361L556.217 162.079ZM572.646 154.246L567.675 152.94L566.519 157.341L571.123 158.55L570.772 159.885L566.168 158.676L564.69 164.305L563.2 163.913L566.541 151.195L573.002 152.892L572.646 154.246ZM577.205 167.592L575.716 167.201L579.056 154.482L580.546 154.873L577.205 167.592ZM590.93 171.196L584.16 169.418L587.5 156.7L593.961 158.396L593.605 159.75L588.634 158.445L587.524 162.671L592.118 163.878L591.765 165.222L587.171 164.016L586.002 168.465L591.254 169.844L590.93 171.196ZM597.023 172.797L600.364 160.078L603.875 161C608.388 162.186 610.102 164.845 609.017 168.978C608.823 169.865 608.445 170.701 607.907 171.433C607.37 172.164 606.684 172.775 605.896 173.225C605.06 173.658 604.146 173.922 603.208 174.002C602.27 174.082 601.325 173.977 600.428 173.691L597.023 172.797ZM601.498 161.823L598.866 171.843L600.8 172.352C602.194 172.803 603.709 172.689 605.02 172.033C605.634 171.656 606.163 171.157 606.574 170.565C606.986 169.974 607.271 169.304 607.411 168.598C608.266 165.341 606.955 163.274 603.477 162.395L601.498 161.823ZM524.748 128.566L520.937 127.565L523.625 117.332C523.915 116.23 524.283 115.024 524.73 113.714L524.634 113.689C524.301 114.42 523.922 115.128 523.497 115.81L516.445 126.365L513.302 125.539L512.243 112.957C512.229 112.117 512.26 111.276 512.336 110.438L512.229 110.411C511.884 112.119 511.554 113.614 511.221 114.881L508.736 124.34L505.274 123.431L509.755 106.369L515.394 107.85L516.223 118.904C516.291 119.772 516.28 120.644 516.19 121.511L516.257 121.528C516.734 120.62 517.167 119.875 517.594 119.233L523.741 110.043L529.234 111.485L524.748 128.566ZM533.898 115.812C533.318 115.684 532.812 115.332 532.491 114.832C532.342 114.608 532.242 114.354 532.2 114.088C532.157 113.821 532.173 113.549 532.245 113.289C532.305 113.026 532.424 112.779 532.592 112.567C532.761 112.356 532.974 112.185 533.217 112.066C533.755 111.833 534.355 111.786 534.922 111.935C535.488 112.084 535.988 112.419 536.341 112.887C536.494 113.109 536.594 113.363 536.635 113.63C536.676 113.897 536.656 114.169 536.578 114.427C536.517 114.693 536.399 114.942 536.232 115.157C536.065 115.373 535.852 115.548 535.61 115.672C535.079 115.939 534.465 115.989 533.898 115.812ZM532.041 130.44L528.279 129.452L531.485 117.246L535.247 118.234L532.041 130.44ZM544.576 133.298C543.285 133.557 541.949 133.48 540.696 133.075C539.851 132.891 539.052 132.539 538.347 132.039C537.641 131.54 537.044 130.903 536.59 130.167C536.161 129.442 535.888 128.635 535.787 127.799C535.686 126.963 535.761 126.115 536.005 125.309C536.194 124.394 536.572 123.529 537.115 122.768C537.659 122.008 538.355 121.37 539.159 120.895C539.993 120.459 540.905 120.192 541.842 120.11C542.779 120.028 543.723 120.132 544.62 120.417C545.713 120.621 546.737 121.1 547.594 121.808L546.756 125C546.151 124.221 545.303 123.667 544.347 123.426C543.882 123.281 543.392 123.233 542.908 123.283C542.424 123.334 541.955 123.483 541.53 123.72C541.108 123.983 540.744 124.328 540.46 124.734C540.175 125.141 539.976 125.601 539.874 126.087C539.727 126.543 539.672 127.023 539.712 127.5C539.752 127.977 539.885 128.442 540.105 128.867C540.353 129.27 540.681 129.618 541.069 129.888C541.457 130.159 541.896 130.347 542.359 130.441C543.349 130.687 544.389 130.633 545.347 130.285L544.576 133.298ZM557.21 127.673C556.788 127.289 556.276 127.019 555.72 126.889C555.354 126.773 554.965 126.748 554.587 126.817C554.208 126.885 553.853 127.044 553.55 127.28C552.864 127.865 552.395 128.663 552.22 129.547L550.696 135.35L546.924 134.359L550.132 122.144L553.904 123.134L553.307 125.407C553.669 124.735 554.249 124.207 554.951 123.908C555.654 123.61 556.436 123.559 557.171 123.765C557.505 123.833 557.821 123.969 558.1 124.164L557.21 127.673ZM562.276 138.774C561.382 138.597 560.533 138.241 559.78 137.729C559.026 137.217 558.383 136.558 557.89 135.792C557.458 135.023 557.188 134.174 557.099 133.296C557.009 132.419 557.101 131.533 557.368 130.692C557.546 129.806 557.911 128.967 558.437 128.232C558.963 127.497 559.64 126.882 560.421 126.428C562.089 125.573 564.026 125.413 565.811 125.982C566.693 126.162 567.53 126.517 568.272 127.026C569.014 127.535 569.646 128.188 570.13 128.947C570.558 129.693 570.827 130.52 570.921 131.376C571.014 132.231 570.931 133.097 570.675 133.918C570.493 134.817 570.128 135.669 569.601 136.421C569.075 137.172 568.399 137.807 567.616 138.284C566.804 138.721 565.913 138.989 564.996 139.073C564.078 139.157 563.153 139.056 562.276 138.774ZM564.979 128.876C564.591 128.753 564.18 128.724 563.779 128.789C563.378 128.854 562.997 129.012 562.668 129.251C561.93 129.865 561.425 130.715 561.24 131.657C560.614 133.988 561.268 135.408 563.203 135.916C565.002 136.388 566.226 135.428 566.858 133.019C567.491 130.611 566.815 129.327 564.987 128.847L564.979 128.876ZM570.764 140.311L571.567 137.254C572.052 137.761 572.599 138.203 573.196 138.571C573.716 138.898 574.281 139.147 574.873 139.312C575.406 139.476 575.97 139.522 576.523 139.445C576.71 139.428 576.887 139.354 577.03 139.232C577.173 139.11 577.275 138.948 577.322 138.766C577.354 138.653 577.361 138.536 577.343 138.42C577.325 138.305 577.282 138.195 577.218 138.097C577.06 137.872 576.869 137.672 576.65 137.504C576.39 137.303 576.117 137.117 575.835 136.948C575.541 136.768 575.25 136.578 574.951 136.375C574.554 136.091 574.176 135.781 573.82 135.447C573.51 135.162 573.248 134.828 573.046 134.458C572.868 134.11 572.761 133.731 572.729 133.341C572.704 132.887 572.754 132.432 572.876 131.994C573.02 131.37 573.335 130.797 573.786 130.341C574.211 129.928 574.727 129.621 575.293 129.445C575.906 129.257 576.547 129.173 577.188 129.198C577.88 129.225 578.567 129.329 579.236 129.508C579.787 129.652 580.326 129.838 580.847 130.066C581.382 130.292 581.9 130.556 582.398 130.856L581.635 133.757C581.23 133.353 580.772 133.007 580.272 132.727C579.782 132.456 579.261 132.247 578.72 132.102C578.487 132.04 578.249 131.999 578.009 131.978C577.797 131.967 577.586 131.981 577.377 132.019C577.204 132.055 577.04 132.128 576.897 132.234C576.772 132.345 576.684 132.491 576.642 132.653C576.582 132.862 576.605 133.086 576.705 133.279C576.822 133.489 576.976 133.677 577.159 133.833C577.373 134.021 577.601 134.192 577.842 134.343L578.61 134.844C579.034 135.13 579.439 135.444 579.821 135.783C580.155 136.071 580.443 136.408 580.675 136.783C580.892 137.13 581.032 137.52 581.089 137.925C581.141 138.394 581.1 138.868 580.97 139.321C580.82 139.978 580.487 140.578 580.009 141.053C579.586 141.482 579.069 141.806 578.499 142.001C577.852 142.191 577.177 142.269 576.504 142.232C575.772 142.198 575.046 142.087 574.338 141.9C573.064 141.579 571.855 141.042 570.764 140.311ZM587.955 145.518C587.061 145.343 586.211 144.988 585.457 144.476C584.703 143.963 584.061 143.303 583.569 142.536C583.133 141.769 582.86 140.919 582.769 140.041C582.677 139.163 582.769 138.275 583.037 137.434C583.216 136.548 583.58 135.709 584.107 134.974C584.633 134.239 585.309 133.624 586.091 133.17C587.751 132.332 589.673 132.18 591.444 132.746C592.326 132.924 593.164 133.278 593.906 133.788C594.648 134.297 595.279 134.951 595.763 135.71C596.191 136.457 596.46 137.284 596.553 138.139C596.647 138.994 596.564 139.86 596.308 140.682C596.125 141.58 595.76 142.431 595.236 143.182C594.711 143.933 594.038 144.569 593.258 145.05C592.45 145.477 591.564 145.738 590.654 145.819C589.743 145.899 588.826 145.797 587.955 145.518ZM590.658 135.62C590.269 135.497 589.857 135.467 589.454 135.532C589.051 135.597 588.668 135.754 588.337 135.993C587.602 136.609 587.101 137.46 586.919 138.402C586.304 140.742 586.964 142.167 588.831 142.657C590.697 143.147 591.854 142.169 592.486 139.761C593.119 137.352 592.484 136.069 590.666 135.591L590.658 135.62ZM608.723 134.43C608.326 134.136 607.879 133.917 607.404 133.784C606.195 133.466 605.415 133.954 605.078 135.241L604.75 136.488L607.545 137.223L606.814 140.008L604.018 139.274L601.542 148.704L597.789 147.719L600.258 138.317L598.207 137.779L598.947 134.964L600.997 135.503L601.386 134.023C601.525 133.391 601.796 132.797 602.182 132.278C602.568 131.759 603.059 131.328 603.624 131.013C604.879 130.388 606.329 130.279 607.664 130.709C608.321 130.866 608.951 131.119 609.534 131.459L608.723 134.43ZM614.02 151.857C613.138 151.99 612.237 151.916 611.388 151.642C608.738 150.946 607.767 149.212 608.491 146.456L609.959 140.865L608.025 140.357L608.764 137.543L610.698 138.051L611.381 135.449L615.426 135.364L614.461 139.039L617.198 139.758L616.466 142.543L613.729 141.824L612.428 146.776C612.093 148.053 612.423 148.843 613.429 149.107C613.863 149.21 614.315 149.205 614.746 149.091L614.02 151.857Z" fill="white"/>
<path d="M674.961 223.653C674.191 221.621 673.026 219.761 671.533 218.181C670.04 216.602 668.249 215.334 666.263 214.452C656.237 209.902 646.127 205.576 635.935 201.472C580.019 179.001 521.505 163.632 461.762 155.727C450.915 154.305 440.01 153.112 429.048 152.149C426.885 151.942 424.702 152.166 422.625 152.808C420.549 153.45 418.62 154.497 416.951 155.889C415.57 157.048 414.436 158.471 413.615 160.076C412.794 161.681 412.303 163.434 412.171 165.231L408.232 223.533C408.029 227.327 409.309 231.05 411.801 233.918C414.293 236.785 417.802 238.572 421.587 238.9C428.589 239.505 435.575 240.227 442.544 241.064C502.449 248.237 561.024 263.921 616.499 287.641C621.105 289.602 625.682 291.621 630.231 293.698C630.988 294.041 631.772 294.319 632.576 294.531C635.836 295.391 639.293 295.098 642.362 293.702C645.431 292.305 647.922 289.891 649.415 286.867L674.579 234.161C675.343 232.524 675.77 230.751 675.836 228.946C675.902 227.141 675.604 225.341 674.961 223.653Z" fill="#505050"/>
<path d="M663.892 219.66C589.549 185.784 509.958 164.88 428.563 157.853C427.159 157.713 425.742 157.852 424.392 158.262C423.042 158.673 421.786 159.346 420.698 160.244C419.895 160.907 419.233 161.724 418.751 162.647C418.269 163.569 417.977 164.579 417.891 165.617L413.959 223.89C413.843 226.19 414.626 228.445 416.144 230.177C417.661 231.909 419.794 232.982 422.089 233.169C494.904 239.447 566.106 258.148 632.609 288.46C634.698 289.405 637.071 289.506 639.233 288.743C641.395 287.979 643.178 286.41 644.21 284.363L669.36 231.673C669.801 230.729 670.048 229.705 670.085 228.664C670.122 227.622 669.95 226.583 669.577 225.61C669.07 224.292 668.306 223.087 667.33 222.066C666.354 221.045 665.186 220.227 663.892 219.66Z" fill="white"/>
<path d="M485.513 217.331L470.17 214.335L475.121 188.754L489.883 191.597L488.971 196.289L479.979 194.548L478.875 200.244L487.248 201.865L486.342 206.538L477.968 204.917L476.822 210.82L486.402 212.685L485.513 217.331ZM512.027 223.178L505.191 221.651L502.662 212.385C502.539 211.785 502.492 211.171 502.521 210.559L502.453 210.542C502.166 211.113 501.838 211.662 501.473 212.187L495.229 219.428L488.395 217.892L499.383 207.037L494.809 192.643L501.791 194.207L503.708 202.652C503.867 203.415 503.961 204.19 503.989 204.969L504.057 204.987C504.314 204.517 504.752 203.836 505.359 202.94L511.097 196.29L517.483 197.719L507.028 208.631L512.027 223.178ZM523.844 216.883L521.654 225.614L515.959 224.19L522.303 198.892L531.23 201.123C537.604 202.728 540.134 206.218 538.819 211.594C538.562 212.772 538.043 213.876 537.299 214.825C536.556 215.774 535.608 216.542 534.526 217.073C532.038 218.211 529.219 218.394 526.605 217.588L523.844 216.883ZM526.906 204.671L524.928 212.557L527.162 213.144C530.187 213.938 532.038 212.991 532.717 210.301C533.395 207.612 532.206 205.921 529.148 205.229L526.906 204.671ZM554.19 234.2L539.106 230.063L546.002 204.909L560.47 208.875L559.207 213.485L550.361 211.069L548.829 216.663L557.057 218.917L555.799 223.508L547.572 221.254L545.989 227.042L555.404 229.618L554.19 234.2ZM580.086 241.891L573.611 239.973L571.654 232.387C571.505 231.81 571.366 231.277 571.207 230.822C571.069 230.415 570.891 230.022 570.677 229.649C570.512 229.318 570.289 229.018 570.021 228.763C569.763 228.528 569.454 228.355 569.119 228.258L567.591 227.856L564.722 237.442L559.098 235.748L566.579 210.769L575.502 213.443C581.571 215.254 583.92 218.435 582.566 222.96C582.324 223.785 581.942 224.563 581.435 225.258C580.961 225.892 580.38 226.439 579.718 226.875C579.036 227.326 578.284 227.663 577.492 227.872C576.639 228.113 575.755 228.23 574.868 228.217L574.848 228.294C575.202 228.536 575.512 228.837 575.762 229.185C576.036 229.57 576.274 229.979 576.475 230.407C576.704 230.858 576.903 231.325 577.07 231.804C577.25 232.296 577.395 232.768 577.523 233.225L580.086 241.891ZM570.978 216.535L568.904 223.487L571.338 224.219C572.395 224.584 573.554 224.517 574.562 224.031C575.023 223.805 575.431 223.485 575.759 223.09C576.087 222.695 576.328 222.235 576.466 221.74C577.123 219.555 576.134 218.069 573.502 217.281L570.978 216.535ZM606.645 228.24L599.585 225.91L592.908 246.137L587.315 244.286L593.99 224.068L586.959 221.746L588.451 217.206L608.147 223.702L606.645 228.24Z" fill="#282828"/>
<path d="M493.141 108.83C491.88 107.06 490.281 105.557 488.436 104.409C486.591 103.26 484.536 102.489 482.391 102.14C474.884 100.84 467.364 99.6667 459.831 98.62V44.79C459.84 40.2881 458.439 35.8964 455.824 32.232C453.209 28.5676 449.511 25.8146 445.251 24.36L445.091 24.31H444.921L370.181 1.70001C366.823 0.571458 363.303 -0.00272239 359.761 9.70412e-06C356.222 -0.00252681 352.706 0.571663 349.351 1.70001L274.601 24.29H274.431L274.271 24.34C270.015 25.793 266.321 28.5414 263.707 32.1998C261.092 35.8582 259.688 40.2433 259.691 44.74V98.57C252.158 99.6233 244.638 100.797 237.131 102.09C234.986 102.439 232.931 103.21 231.086 104.359C229.241 105.507 227.642 107.01 226.381 108.78C225.34 110.251 224.604 111.916 224.218 113.677C223.831 115.438 223.802 117.258 224.131 119.03L235.131 176.42C235.898 180.141 238.082 183.417 241.221 185.557C244.359 187.698 248.207 188.534 251.951 187.89C254.551 187.44 257.151 187.02 259.761 186.6C259.911 200.92 265.381 214.83 276.061 227.96C284.211 237.96 295.431 247.58 309.401 256.48C324.254 265.841 340.072 273.575 356.581 279.55L359.861 280.67L363.131 279.52C379.614 273.413 395.408 265.587 410.251 256.17C424.251 247.17 435.421 237.61 443.551 227.64C454.231 214.55 459.711 200.74 459.861 186.64C462.471 187.06 465.071 187.48 467.671 187.93C468.49 188.069 469.32 188.139 470.151 188.14C473.523 188.144 476.792 186.982 479.405 184.852C482.019 182.721 483.815 179.753 484.491 176.45L495.441 119.08C495.763 117.305 495.725 115.483 495.33 113.722C494.935 111.961 494.19 110.298 493.141 108.83Z" fill="#002050"/>
<path d="M269.761 184.71V186.05C269.761 239.38 359.761 270.11 359.761 270.11C359.761 270.11 449.761 238.59 449.761 186.05V185.14C390.087 176.435 329.476 176.29 269.761 184.71Z" fill="#0064B5"/>
<path d="M449.761 97.2899V45.1599C449.764 42.7572 449.015 40.4137 447.62 38.4574C446.225 36.5011 444.253 35.03 441.981 34.2499L367.131 11.6199C362.359 9.99322 357.183 9.99322 352.411 11.6199L277.501 34.2499C275.236 35.0367 273.273 36.5107 271.885 38.4664C270.498 40.4222 269.755 42.7621 269.761 45.1599V97.2899C329.525 89.7666 389.997 89.7666 449.761 97.2899Z" fill="#505050"/>
<path d="M313.761 78.89C312.633 79.4419 311.386 79.7064 310.131 79.66C309.296 79.6964 308.463 79.5547 307.687 79.2443C306.911 78.934 306.21 78.4621 305.631 77.86C304.474 76.5591 303.868 74.8594 303.941 73.12C303.901 72.1861 304.049 71.2537 304.375 70.3778C304.701 69.5019 305.2 68.7002 305.841 68.02C306.461 67.3698 307.21 66.856 308.04 66.5116C308.87 66.1673 309.763 65.9998 310.661 66.02C311.72 65.9856 312.776 66.1694 313.761 66.56V68.2C312.805 67.6762 311.731 67.4075 310.641 67.42C309.957 67.3935 309.275 67.5147 308.641 67.7752C308.008 68.0358 307.438 68.4296 306.971 68.93C306.004 70.0323 305.499 71.4649 305.561 72.93C305.487 74.3296 305.961 75.703 306.881 76.76C307.319 77.233 307.854 77.6057 308.449 77.8526C309.045 78.0994 309.687 78.2145 310.331 78.19C311.529 78.2381 312.717 77.9507 313.761 77.36V78.89ZM327.191 79.44H320.191V66.29H326.871V67.69H321.761V72.06H326.511V73.45H321.761V78.05H327.191V79.44ZM342.911 79.44H341.081L338.881 75.76C338.703 75.4545 338.506 75.1606 338.291 74.88C338.121 74.6618 337.926 74.4639 337.711 74.29C337.513 74.1438 337.294 74.0291 337.061 73.95C336.811 73.8785 336.551 73.8448 336.291 73.85H335.021V79.44H333.481V66.29H337.411C337.949 66.2839 338.485 66.358 339.001 66.51C339.464 66.6385 339.896 66.8596 340.271 67.16C340.626 67.463 340.912 67.8379 341.111 68.26C341.477 69.152 341.509 70.1463 341.201 71.06C341.066 71.4261 340.866 71.7649 340.611 72.06C340.352 72.3627 340.045 72.6196 339.701 72.82C339.324 73.0444 338.916 73.2128 338.491 73.32C338.695 73.4086 338.886 73.5229 339.061 73.66C339.234 73.7878 339.392 73.9355 339.531 74.1C339.671 74.27 339.821 74.47 339.961 74.68C340.101 74.89 340.271 75.15 340.441 75.44L342.911 79.44ZM335.021 67.69V72.45H337.111C337.475 72.4587 337.837 72.4011 338.181 72.28C338.495 72.1719 338.784 72.0019 339.031 71.78C339.276 71.5591 339.467 71.2856 339.591 70.98C339.733 70.6451 339.801 70.2836 339.791 69.92C339.811 69.6127 339.761 69.3049 339.643 69.0204C339.525 68.736 339.343 68.4826 339.111 68.28C338.539 67.8447 337.827 67.6348 337.111 67.69H335.021ZM355.421 67.69H351.621V79.44H350.081V67.69H346.291V66.29H355.421V67.69ZM362.761 79.44H361.211V66.29H362.761V79.44ZM376.681 67.69H371.551V72.24H376.301V73.62H371.551V79.44H370.001V66.29H376.681V67.69ZM384.481 79.44H382.941V66.29H384.481V79.44ZM398.681 79.44H391.681V66.29H398.361V67.69H393.221V72.06H397.981V73.45H393.221V78.05H398.661L398.681 79.44ZM404.971 79.44V66.29H408.601C413.268 66.29 415.601 68.4267 415.601 72.7C415.64 73.6064 415.489 74.5108 415.156 75.3549C414.824 76.199 414.318 76.9639 413.671 77.6C412.26 78.8747 410.4 79.5365 408.501 79.44H404.971ZM406.511 67.69V78.05H408.511C409.976 78.1346 411.414 77.6348 412.511 76.66C413.01 76.1423 413.396 75.5264 413.643 74.8516C413.891 74.1767 413.996 73.4576 413.951 72.74C413.951 69.3733 412.161 67.7067 408.581 67.74L406.511 67.69ZM323.841 55.02H319.901V44.44C319.901 43.3 319.951 42.04 320.051 40.66H319.951C319.817 41.4509 319.634 42.2324 319.401 43L315.261 55H312.001L307.761 43.12C307.529 42.3111 307.342 41.4898 307.201 40.66H307.091C307.201 42.4 307.251 43.93 307.251 45.24V55.02H303.691V37.36H309.521L313.141 47.84C313.419 48.6609 313.626 49.504 313.761 50.36H313.841C314.061 49.36 314.301 48.53 314.541 47.8L318.151 37.36H323.841V55.02ZM329.451 40.36C328.855 40.3819 328.273 40.1702 327.831 39.77C327.629 39.5908 327.469 39.3703 327.36 39.1236C327.252 38.8768 327.197 38.6096 327.201 38.34C327.192 38.0697 327.245 37.801 327.354 37.5535C327.463 37.3061 327.626 37.0862 327.831 36.91C328.293 36.5467 328.863 36.3491 329.451 36.3491C330.039 36.3491 330.609 36.5467 331.071 36.91C331.273 37.088 331.434 37.3085 331.541 37.5557C331.648 37.8029 331.699 38.0707 331.691 38.34C331.698 38.6121 331.646 38.8825 331.539 39.1328C331.432 39.383 331.273 39.6072 331.071 39.79C330.624 40.1802 330.044 40.3842 329.451 40.36ZM331.371 54.98H327.471V42.36H331.371V54.98ZM344.211 54.56C343.028 55.1383 341.716 55.4034 340.401 55.33C339.539 55.366 338.678 55.2278 337.871 54.9237C337.063 54.6196 336.325 54.1558 335.701 53.56C335.102 52.9677 334.633 52.2573 334.323 51.4741C334.013 50.6908 333.869 49.8517 333.901 49.01C333.852 48.078 333.997 47.1459 334.328 46.2731C334.658 45.4003 335.167 44.6058 335.821 43.94C336.516 43.3065 337.33 42.8168 338.216 42.4993C339.102 42.1818 340.041 42.0427 340.981 42.09C342.09 42.0088 343.202 42.2119 344.211 42.68V45.98C343.431 45.3821 342.474 45.0618 341.491 45.07C341.003 45.0486 340.516 45.1262 340.059 45.2981C339.602 45.4699 339.184 45.7325 338.831 46.07C338.49 46.4309 338.226 46.8571 338.054 47.3228C337.882 47.7885 337.806 48.2842 337.831 48.78C337.792 49.7285 338.125 50.6547 338.761 51.36C339.102 51.6882 339.507 51.9422 339.951 52.1057C340.395 52.2692 340.869 52.3388 341.341 52.31C342.357 52.2976 343.347 51.9806 344.181 51.4L344.211 54.56ZM355.001 45.91C354.496 45.6441 353.931 45.5132 353.361 45.53C352.977 45.5087 352.593 45.5824 352.244 45.7446C351.896 45.9068 351.592 46.1525 351.361 46.46C350.843 47.1981 350.589 48.0896 350.641 48.99V54.99H346.761V42.36H350.651V44.71C350.834 43.9684 351.263 43.3106 351.867 42.8439C352.472 42.3772 353.217 42.1291 353.981 42.14C354.321 42.1205 354.661 42.1716 354.981 42.29L355.001 45.91ZM362.761 55.36C361.851 55.4162 360.94 55.2884 360.081 54.9842C359.222 54.6801 358.433 54.2059 357.761 53.59C357.144 52.9584 356.665 52.2058 356.353 51.3796C356.042 50.5535 355.905 49.6717 355.951 48.79C355.9 47.8868 356.041 46.9831 356.366 46.1384C356.69 45.2938 357.189 44.5275 357.831 43.89C359.219 42.6577 361.037 42.0218 362.891 42.12C363.789 42.0682 364.689 42.1983 365.536 42.5024C366.383 42.8066 367.16 43.2785 367.821 43.89C368.426 44.5022 368.898 45.2333 369.206 46.0372C369.514 46.841 369.652 47.7001 369.611 48.56C369.665 49.4752 369.529 50.3917 369.213 51.252C368.896 52.1124 368.405 52.8981 367.771 53.56C367.098 54.1792 366.308 54.6575 365.448 54.9666C364.587 55.2757 363.674 55.4095 362.761 55.36ZM362.861 45.1C362.453 45.08 362.047 45.1554 361.673 45.3204C361.3 45.4853 360.971 45.7352 360.711 46.05C360.156 46.8329 359.888 47.7827 359.951 48.74C359.951 51.16 360.928 52.37 362.881 52.37C364.834 52.37 365.768 51.1267 365.681 48.64C365.661 46.26 364.711 45.07 362.831 45.07L362.861 45.1ZM371.321 54.69V51.53C371.921 51.8988 372.566 52.1879 373.241 52.39C373.827 52.5734 374.437 52.6711 375.051 52.68C375.609 52.703 376.165 52.604 376.681 52.39C376.857 52.3261 377.01 52.2091 377.117 52.0551C377.225 51.9012 377.282 51.7177 377.281 51.53C377.283 51.4133 377.26 51.2975 377.214 51.1905C377.167 51.0835 377.098 50.9878 377.011 50.91C376.798 50.7363 376.562 50.5917 376.311 50.48C376.008 50.3517 375.697 50.2416 375.381 50.15C375.041 50.05 374.721 49.94 374.381 49.82C373.927 49.6481 373.486 49.4442 373.061 49.21C372.689 49.0127 372.351 48.756 372.061 48.45C371.798 48.1602 371.598 47.8199 371.471 47.45C371.323 47.0191 371.252 46.5655 371.261 46.11C371.245 45.4682 371.407 44.8346 371.731 44.28C372.031 43.7681 372.454 43.3386 372.961 43.03C373.518 42.7058 374.127 42.4792 374.761 42.36C375.441 42.2096 376.135 42.1358 376.831 42.14C377.4 42.1397 377.968 42.1831 378.531 42.27C379.105 42.354 379.673 42.4776 380.231 42.64V45.64C379.734 45.3504 379.199 45.1316 378.641 44.99C378.102 44.8527 377.547 44.7821 376.991 44.78C376.746 44.7789 376.502 44.7989 376.261 44.84C376.058 44.8854 375.86 44.9524 375.671 45.04C375.511 45.1168 375.37 45.2298 375.261 45.37C375.161 45.5063 375.109 45.6712 375.111 45.84C375.111 46.0567 375.189 46.2662 375.331 46.43C375.497 46.6038 375.694 46.746 375.911 46.85C376.168 46.9781 376.436 47.0851 376.711 47.17L377.581 47.46C378.06 47.629 378.528 47.8294 378.981 48.06C379.377 48.2534 379.741 48.5064 380.061 48.81C380.358 49.0915 380.593 49.4321 380.751 49.81C380.944 50.3463 381.022 50.9171 380.98 51.4854C380.939 52.0538 380.779 52.6072 380.511 53.11C380.186 53.6369 379.74 54.079 379.211 54.4C378.637 54.7468 378.008 54.9936 377.351 55.13C376.631 55.2838 375.897 55.3609 375.161 55.36C373.852 55.357 372.553 55.1304 371.321 54.69ZM389.271 55.36C388.361 55.4162 387.45 55.2884 386.591 54.9842C385.732 54.6801 384.943 54.2059 384.271 53.59C383.656 52.957 383.178 52.2041 382.866 51.3783C382.555 50.5525 382.417 49.6715 382.461 48.79C382.41 47.8868 382.551 46.9831 382.876 46.1384C383.2 45.2938 383.699 44.5275 384.341 43.89C385.73 42.6596 387.547 42.024 389.401 42.12C390.301 42.0692 391.202 42.1996 392.051 42.5037C392.899 42.8077 393.678 43.2792 394.341 43.89C394.942 44.5044 395.411 45.2362 395.717 46.0397C396.023 46.8431 396.161 47.7011 396.121 48.56C396.175 49.4752 396.039 50.3917 395.723 51.252C395.406 52.1124 394.915 52.8981 394.281 53.56C393.608 54.1792 392.818 54.6575 391.958 54.9666C391.097 55.2757 390.184 55.4095 389.271 55.36ZM389.371 45.1C388.965 45.0792 388.559 45.1543 388.187 45.3194C387.816 45.4844 387.488 45.7347 387.231 46.05C386.673 46.8316 386.401 47.7815 386.461 48.74C386.461 51.16 387.438 52.37 389.391 52.37C391.344 52.37 392.278 51.1267 392.191 48.64C392.191 46.26 391.251 45.07 389.371 45.07V45.1ZM406.541 39.36C406.083 39.1766 405.595 39.0783 405.101 39.07C403.851 39.07 403.231 39.74 403.231 41.07V42.36H406.111V45.24H403.231V54.99H399.341V45.27H397.221V42.36H399.341V40.83C399.317 40.1839 399.431 39.54 399.676 38.9416C399.921 38.3431 400.291 37.8039 400.761 37.36C401.813 36.4384 403.184 35.9647 404.581 36.04C405.256 36.0235 405.93 36.1078 406.581 36.29L406.541 39.36ZM416.101 54.87C415.281 55.2198 414.391 55.3772 413.501 55.33C410.754 55.33 409.381 53.9033 409.381 51.05V45.27H407.331V42.36H409.381V39.67L413.261 38.56V42.36H416.101V45.24H413.261V50.36C413.261 51.68 413.781 52.36 414.831 52.36C415.276 52.3484 415.712 52.2282 416.101 52.01V54.87ZM336.911 196.9L341.621 211.39H356.861L344.531 220.34L349.241 234.83L336.911 225.88L324.581 234.83L329.291 220.34L316.961 211.39H332.201L336.911 196.9ZM382.611 196.9L387.321 211.39H402.561L390.231 220.34L394.941 234.83L382.611 225.88L370.281 234.83L374.991 220.34L362.661 211.39H377.901L382.611 196.9Z" fill="white"/>
<path d="M493.141 108.83C491.88 107.06 490.281 105.557 488.436 104.409C486.591 103.26 484.536 102.489 482.391 102.14C471.538 100.287 460.661 98.67 449.761 97.29C389.97 89.7599 329.471 89.7599 269.681 97.29C258.828 98.67 247.978 100.287 237.131 102.14C234.986 102.489 232.931 103.26 231.086 104.409C229.241 105.557 227.642 107.06 226.381 108.83C225.34 110.301 224.604 111.966 224.218 113.727C223.831 115.488 223.802 117.308 224.131 119.08L235.131 176.47C235.898 180.191 238.082 183.467 241.221 185.607C244.359 187.748 248.207 188.584 251.951 187.94C258.878 186.747 265.818 185.67 272.771 184.71C332.533 176.43 393.171 176.72 452.851 185.57C457.804 186.297 462.744 187.087 467.671 187.94C468.49 188.079 469.32 188.149 470.151 188.15C473.523 188.154 476.792 186.992 479.405 184.862C482.019 182.731 483.815 179.763 484.491 176.46L495.441 119.09C495.764 117.313 495.727 115.489 495.332 113.727C494.937 111.964 494.192 110.299 493.141 108.83Z" fill="#505050"/>
<path d="M481.421 107.78C400.911 93.9 318.62 93.9 238.111 107.78C236.717 108.001 235.381 108.495 234.18 109.235C232.979 109.975 231.936 110.945 231.111 112.09C230.503 112.935 230.07 113.893 229.838 114.908C229.606 115.923 229.58 116.975 229.761 118L240.761 175.36C241.232 177.614 242.563 179.596 244.471 180.886C246.378 182.176 248.713 182.672 250.981 182.27C323.002 169.845 396.62 169.845 468.641 182.27C470.901 182.653 473.222 182.148 475.119 180.861C477.016 179.573 478.343 177.602 478.821 175.36L489.761 118.01C489.948 116.984 489.926 115.932 489.698 114.915C489.469 113.898 489.038 112.937 488.431 112.09C487.605 110.944 486.56 109.973 485.357 109.233C484.154 108.494 482.816 108 481.421 107.78Z" fill="white"/>
<path d="M290.001 150.36L284.121 150.95L281.891 145.79L273.371 146.64L272.211 152.13L266.371 152.72L272.701 127.89L279.101 127.25L290.001 150.36ZM280.241 141.77L276.871 133.97C276.589 133.291 276.381 132.584 276.251 131.86H276.121C276.13 132.576 276.06 133.29 275.911 133.99L274.111 142.37L280.241 141.77ZM292.311 149.36L291.961 144C292.949 144.739 294.064 145.292 295.251 145.63C296.382 145.966 297.564 146.098 298.741 146.02C299.341 145.989 299.935 145.888 300.511 145.72C300.953 145.59 301.371 145.391 301.751 145.13C302.051 144.918 302.294 144.637 302.461 144.31C302.609 143.999 302.675 143.654 302.651 143.31C302.628 142.859 302.46 142.427 302.171 142.08C301.845 141.678 301.449 141.339 301.001 141.08C300.456 140.772 299.888 140.508 299.301 140.29C298.641 140.04 297.931 139.79 297.181 139.53C295.524 139.062 294.007 138.197 292.761 137.01C291.757 135.913 291.176 134.496 291.121 133.01C291.018 131.892 291.204 130.766 291.661 129.74C292.105 128.801 292.771 127.984 293.601 127.36C294.478 126.697 295.467 126.195 296.521 125.88C297.692 125.524 298.9 125.306 300.121 125.23C301.233 125.149 302.349 125.149 303.461 125.23C304.38 125.311 305.289 125.489 306.171 125.76L306.501 130.76C306.068 130.504 305.613 130.286 305.141 130.11C304.652 129.932 304.15 129.788 303.641 129.68C303.14 129.572 302.632 129.502 302.121 129.47C301.645 129.435 301.167 129.435 300.691 129.47C300.129 129.5 299.572 129.594 299.031 129.75C298.577 129.883 298.148 130.089 297.761 130.36C297.45 130.574 297.19 130.854 297.001 131.18C296.833 131.485 296.756 131.832 296.781 132.18C296.806 132.563 296.942 132.931 297.171 133.24C297.449 133.583 297.788 133.871 298.171 134.09C298.639 134.378 299.131 134.626 299.641 134.83C300.298 135.1 300.965 135.343 301.641 135.56C302.557 135.864 303.449 136.235 304.311 136.67C305.063 137.038 305.759 137.509 306.381 138.07C306.962 138.598 307.431 139.237 307.761 139.95C308.119 140.748 308.326 141.606 308.371 142.48C308.481 143.648 308.292 144.825 307.821 145.9C307.385 146.83 306.726 147.638 305.901 148.25C304.997 148.902 303.98 149.38 302.901 149.66C301.716 149.992 300.499 150.196 299.271 150.27C298.011 150.357 296.745 150.326 295.491 150.18C294.397 150.06 293.326 149.784 292.311 149.36ZM312.141 148.14L311.921 142.77C313.837 144.268 316.221 145.04 318.651 144.95C319.253 144.936 319.85 144.848 320.431 144.69C320.876 144.574 321.298 144.385 321.681 144.13C321.987 143.928 322.238 143.653 322.411 143.33C322.573 143.023 322.649 142.677 322.631 142.33C322.618 141.877 322.456 141.442 322.171 141.09C321.853 140.692 321.467 140.353 321.031 140.09C320.492 139.766 319.927 139.488 319.341 139.26C318.674 138.987 317.974 138.717 317.241 138.45C315.603 137.92 314.122 136.992 312.931 135.75C311.955 134.643 311.406 133.225 311.381 131.75C311.296 130.628 311.51 129.503 312.001 128.49C312.475 127.572 313.16 126.78 314.001 126.18C314.909 125.535 315.925 125.057 317.001 124.77C318.178 124.444 319.39 124.26 320.611 124.22C321.725 124.156 322.842 124.186 323.951 124.31C324.869 124.407 325.774 124.601 326.651 124.89L326.851 129.89C326.427 129.622 325.978 129.394 325.511 129.21C325.027 129.014 324.529 128.857 324.021 128.74C323.525 128.619 323.02 128.535 322.511 128.49C322.035 128.461 321.557 128.461 321.081 128.49C320.517 128.511 319.957 128.595 319.411 128.74C318.967 128.855 318.545 129.04 318.161 129.29C317.844 129.49 317.577 129.76 317.381 130.08C317.207 130.384 317.124 130.731 317.141 131.08C317.156 131.464 317.281 131.835 317.501 132.15C317.779 132.498 318.118 132.793 318.501 133.02C318.963 133.323 319.452 133.584 319.961 133.8C320.531 134.05 321.171 134.31 321.891 134.57C322.796 134.904 323.678 135.298 324.531 135.75C325.26 136.141 325.933 136.628 326.531 137.2C327.098 137.743 327.554 138.392 327.871 139.11C328.21 139.915 328.394 140.777 328.411 141.65C328.502 142.822 328.285 143.998 327.781 145.06C327.314 145.979 326.627 146.77 325.781 147.36C324.871 147.985 323.854 148.439 322.781 148.7C321.585 148.996 320.362 149.167 319.131 149.21C317.868 149.273 316.602 149.212 315.351 149.03C314.243 148.894 313.161 148.594 312.141 148.14ZM343.261 148.5C341.701 148.584 340.141 148.341 338.68 147.787C337.22 147.232 335.892 146.378 334.781 145.28C333.663 144.125 332.787 142.76 332.203 141.262C331.619 139.765 331.34 138.166 331.381 136.56C331.177 133.171 332.308 129.836 334.531 127.27C335.639 126.076 336.989 125.131 338.491 124.498C339.993 123.865 341.612 123.559 343.241 123.6C344.789 123.518 346.336 123.765 347.782 124.323C349.228 124.882 350.54 125.739 351.631 126.84C353.858 129.239 355.051 132.418 354.951 135.69C355.058 137.355 354.835 139.026 354.294 140.605C353.754 142.183 352.906 143.64 351.801 144.89C350.714 146.062 349.391 146.99 347.919 147.612C346.446 148.234 344.859 148.537 343.261 148.5ZM343.161 128.27C342.289 128.252 341.426 128.445 340.645 128.831C339.863 129.218 339.186 129.787 338.671 130.49C337.602 132.192 337.05 134.167 337.082 136.177C337.114 138.186 337.728 140.143 338.851 141.81C339.38 142.468 340.057 142.992 340.827 143.34C341.596 143.687 342.437 143.848 343.281 143.81C344.13 143.83 344.973 143.65 345.74 143.285C346.508 142.92 347.179 142.381 347.701 141.71C348.856 140.067 349.404 138.073 349.251 136.07C349.343 134.003 348.749 131.964 347.561 130.27C347.045 129.605 346.374 129.075 345.608 128.727C344.841 128.378 344.002 128.221 343.161 128.27ZM376.961 147.2C374.782 148.11 372.429 148.527 370.071 148.42C366.371 148.42 363.474 147.31 361.381 145.09C360.307 143.922 359.478 142.55 358.944 141.055C358.41 139.561 358.181 137.974 358.271 136.39C358.215 134.668 358.509 132.953 359.134 131.347C359.76 129.742 360.705 128.28 361.911 127.05C363.136 125.858 364.593 124.931 366.191 124.326C367.789 123.72 369.494 123.449 371.201 123.53C373.221 123.494 375.231 123.812 377.141 124.47V129.69C375.483 128.697 373.583 128.182 371.651 128.2C370.641 128.149 369.631 128.309 368.686 128.668C367.741 129.028 366.881 129.58 366.161 130.29C365.44 131.06 364.88 131.966 364.514 132.955C364.148 133.944 363.984 134.996 364.031 136.05C363.918 138.089 364.607 140.092 365.951 141.63C366.632 142.335 367.454 142.888 368.365 143.251C369.275 143.615 370.252 143.782 371.231 143.74C373.271 143.778 375.283 143.259 377.051 142.24L376.961 147.2ZM387.161 148.36L381.731 148.23L382.331 124.16L387.751 124.29L387.161 148.36ZM414.361 149.36L408.461 149.1L406.991 143.67L398.431 143.29L396.501 148.57L390.631 148.31L400.451 124.64L406.881 124.93L414.361 149.36ZM405.931 139.45L403.761 131.3C403.578 130.584 403.474 129.849 403.451 129.11H403.311C403.228 129.822 403.056 130.52 402.801 131.19L399.801 139.19L405.931 139.45ZM433.761 131.08L426.921 130.6L425.541 150.21L420.121 149.83L421.491 130.22L414.671 129.74L414.981 125.34L434.071 126.67L433.761 131.08ZM450.451 152.51L436.091 151.04L438.521 127.04L452.331 128.45L451.891 132.84L443.471 131.98L442.931 137.31L450.761 138.11L450.321 142.49L442.481 141.69L441.931 147.17L450.931 148.08L450.451 152.51Z" fill="#282828"/>
<defs>
<linearGradient id="paint0_linear_208_36" x1="454.87" y1="360.722" x2="342.444" y2="222.5" gradientUnits="userSpaceOnUse">
<stop stop-color="#003067"/>
<stop offset="0.2" stop-color="#003F7C"/>
<stop offset="0.47" stop-color="#004F90"/>
<stop offset="0.74" stop-color="#00589D"/>
<stop offset="1" stop-color="#005BA1"/>
</linearGradient>
<linearGradient id="paint1_linear_208_36" x1="412.777" y1="211.944" x2="262.786" y2="333.673" gradientUnits="userSpaceOnUse">
<stop offset="0.15" stop-color="#50E6FF"/>
<stop offset="0.692" stop-color="#0078D4"/>
</linearGradient>
<linearGradient id="paint2_linear_208_36" x1="420.097" y1="84.1254" x2="196.078" y2="323.959" gradientUnits="userSpaceOnUse">
<stop stop-color="#50E6FF"/>
<stop offset="0.623" stop-color="#0078D4"/>
</linearGradient>
</defs>
</svg>
