<svg width="424" height="142" viewBox="0 0 424 142" fill="none" xmlns="http://www.w3.org/2000/svg">
<path d="M3.75 129V37.95H1.5L3 24H26.4L33.6 80.55L40.95 24H63.9V129H49.65V47.4L38.55 114H28.8L18 49.2V129H3.75ZM99.1934 99V114.9C99.1934 115.4 99.4434 115.65 99.9434 115.65H105.943C106.443 115.65 106.693 115.4 106.693 114.9V87.9L94.8434 82.65C93.9434 82.35 92.6934 81.85 91.0934 81.15C89.4934 80.35 88.0434 79.2 86.7434 77.7C85.5434 76.2 84.9434 74.15 84.9434 71.55V37.35C84.9434 33.15 86.2434 29.8 88.8434 27.3C91.4434 24.7 94.8434 23.4 99.0434 23.4H106.843C111.043 23.4 114.443 24.7 117.043 27.3C119.643 29.8 120.943 33.15 120.943 37.35V59.55L106.693 58.35V38.1C106.693 37.6 106.443 37.35 105.943 37.35H99.9434C99.4434 37.35 99.1934 37.6 99.1934 38.1V69.45L111.043 74.7C111.943 75.1 113.193 75.65 114.793 76.35C116.393 77.05 117.793 78.15 118.993 79.65C120.293 81.15 120.943 83.2 120.943 85.8V115.65C120.943 119.85 119.643 123.25 117.043 125.85C114.443 128.35 111.043 129.6 106.843 129.6H99.0434C94.8434 129.6 91.4434 128.35 88.8434 125.85C86.2434 123.25 84.9434 119.85 84.9434 115.65V99H99.1934ZM175.232 69.45L173.732 83.4H158.432V129H144.182V37.95H141.932L143.432 24H178.232L176.732 37.95H158.432V69.45H175.232ZM197.707 37.95V24H238.957V37.95H225.457V129H211.207V37.95H197.707ZM275.021 24V69.3H283.571V24H297.821V129H283.571V83.25H275.021V129H260.771V37.95H258.521L260.021 24H275.021ZM357.803 115.65C357.803 119.85 356.503 123.25 353.903 125.85C351.303 128.35 347.903 129.6 343.703 129.6H334.403C330.203 129.6 326.803 128.35 324.203 125.85C321.603 123.25 320.303 119.85 320.303 115.65V37.95H318.053L319.553 24H334.553V114.9C334.553 115.4 334.803 115.65 335.303 115.65H342.803C343.303 115.65 343.553 115.4 343.553 114.9V24.3H357.803V115.65ZM380.256 130.05V37.95H378.006L379.506 24H403.206C407.406 24 410.806 25.3 413.406 27.9C416.006 30.4 417.306 33.75 417.306 37.95V69.45C417.306 70.85 417.106 72.2 416.706 73.5C419.106 76.1 420.306 79.4 420.306 83.4V116.1C420.306 120.3 418.706 123.7 415.506 126.3C412.406 128.8 408.756 130.05 404.556 130.05H380.256ZM402.306 37.95H394.506V69.45H402.306C402.806 69.45 403.056 69.2 403.056 68.7V38.7C403.056 38.2 402.806 37.95 402.306 37.95ZM405.306 83.4H394.506V116.1H405.306C405.806 116.1 406.056 115.85 406.056 115.35V84.15C406.056 83.65 405.806 83.4 405.306 83.4Z" fill="white"/>
</svg>
