<svg width="453" height="178" viewBox="0 0 453 178" fill="none" xmlns="http://www.w3.org/2000/svg">
<path d="M18.75 106V14.95H16.5L18 0.999993H41.4L48.6 57.55L55.95 0.999993H78.9V106H64.65V24.4L53.55 91H43.8L33 26.2V106H18.75ZM114.193 76V91.9C114.193 92.4 114.443 92.65 114.943 92.65H120.943C121.443 92.65 121.693 92.4 121.693 91.9V64.9L109.843 59.65C108.943 59.35 107.693 58.85 106.093 58.15C104.493 57.35 103.043 56.2 101.743 54.7C100.543 53.2 99.9434 51.15 99.9434 48.55V14.35C99.9434 10.15 101.243 6.79999 103.843 4.3C106.443 1.69999 109.843 0.399992 114.043 0.399992H121.843C126.043 0.399992 129.443 1.69999 132.043 4.3C134.643 6.79999 135.943 10.15 135.943 14.35V36.55L121.693 35.35V15.1C121.693 14.6 121.443 14.35 120.943 14.35H114.943C114.443 14.35 114.193 14.6 114.193 15.1V46.45L126.043 51.7C126.943 52.1 128.193 52.65 129.793 53.35C131.393 54.05 132.793 55.15 133.993 56.65C135.293 58.15 135.943 60.2 135.943 62.8V92.65C135.943 96.85 134.643 100.25 132.043 102.85C129.443 105.35 126.043 106.6 121.843 106.6H114.043C109.843 106.6 106.443 105.35 103.843 102.85C101.243 100.25 99.9434 96.85 99.9434 92.65V76H114.193ZM190.232 46.45L188.732 60.4H173.432V106H159.182V14.95H156.932L158.432 0.999993H193.232L191.732 14.95H173.432V46.45H190.232ZM212.707 14.95V0.999993H253.957V14.95H240.457V106H226.207V14.95H212.707ZM290.021 0.999993V46.3H298.571V0.999993H312.821V106H298.571V60.25H290.021V106H275.771V14.95H273.521L275.021 0.999993H290.021ZM372.803 92.65C372.803 96.85 371.503 100.25 368.903 102.85C366.303 105.35 362.903 106.6 358.703 106.6H349.403C345.203 106.6 341.803 105.35 339.203 102.85C336.603 100.25 335.303 96.85 335.303 92.65V14.95H333.053L334.553 0.999993H349.553V91.9C349.553 92.4 349.803 92.65 350.303 92.65H357.803C358.303 92.65 358.553 92.4 358.553 91.9V1.3H372.803V92.65ZM395.256 107.05V14.95H393.006L394.506 0.999993H418.206C422.406 0.999993 425.806 2.29999 428.406 4.9C431.006 7.39999 432.306 10.75 432.306 14.95V46.45C432.306 47.85 432.106 49.2 431.706 50.5C434.106 53.1 435.306 56.4 435.306 60.4V93.1C435.306 97.3 433.706 100.7 430.506 103.3C427.406 105.8 423.756 107.05 419.556 107.05H395.256ZM417.306 14.95H409.506V46.45H417.306C417.806 46.45 418.056 46.2 418.056 45.7V15.7C418.056 15.2 417.806 14.95 417.306 14.95ZM420.306 60.4H409.506V93.1H420.306C420.806 93.1 421.056 92.85 421.056 92.35V61.15C421.056 60.65 420.806 60.4 420.306 60.4Z" fill="black"/>
<path d="M14.625 177.55C11.925 177.55 9.64167 177.033 7.775 176C5.90833 174.967 4.4 173.583 3.25 171.85C2.11667 170.1 1.29167 168.158 0.775 166.025C0.258333 163.875 1.19209e-07 161.7 1.19209e-07 159.5C1.19209e-07 157.383 0.266667 155.258 0.8 153.125C1.33333 150.992 2.175 149.042 3.325 147.275C4.475 145.508 5.98333 144.092 7.85 143.025C9.71667 141.942 11.975 141.4 14.625 141.4C16.8083 141.4 18.6917 141.75 20.275 142.45C21.8583 143.15 23.1667 144.05 24.2 145.15C25.25 146.25 26.0417 147.408 26.575 148.625L21.425 151.075C20.8583 150.242 20.2667 149.508 19.65 148.875C19.0333 148.242 18.3167 147.75 17.5 147.4C16.7 147.05 15.7417 146.875 14.625 146.875C13.0083 146.875 11.6417 147.258 10.525 148.025C9.40833 148.792 8.51667 149.8 7.85 151.05C7.2 152.3 6.725 153.667 6.425 155.15C6.125 156.617 5.975 158.067 5.975 159.5C5.975 161.017 6.14167 162.525 6.475 164.025C6.80833 165.508 7.325 166.858 8.025 168.075C8.725 169.275 9.61667 170.242 10.7 170.975C11.8 171.692 13.1083 172.05 14.625 172.05C16.2583 172.05 17.6083 171.642 18.675 170.825C19.7583 169.992 20.7 168.917 21.5 167.6L26.775 169.575C26.075 171.092 25.175 172.45 24.075 173.65C22.975 174.85 21.6417 175.8 20.075 176.5C18.525 177.2 16.7083 177.55 14.625 177.55ZM38.2906 177V142H60.9906V147.45H44.0656V156.2H54.4406V161.65H44.0656V171.5H62.0406V177H38.2906ZM74.107 177V142H89.332C92.1987 142 94.4654 142.5 96.132 143.5C97.7987 144.5 98.982 145.808 99.682 147.425C100.399 149.025 100.757 150.725 100.757 152.525C100.757 153.875 100.499 155.225 99.982 156.575C99.4654 157.925 98.657 159.133 97.557 160.2C96.4737 161.25 95.082 162.008 93.382 162.475L100.482 177H94.007L87.182 163.15H79.882V177H74.107ZM79.882 157.75H89.432C90.782 157.75 91.8487 157.5 92.632 157C93.432 156.5 93.9987 155.858 94.332 155.075C94.6654 154.292 94.832 153.467 94.832 152.6C94.832 151.8 94.6737 151.008 94.357 150.225C94.057 149.425 93.507 148.758 92.707 148.225C91.9237 147.675 90.832 147.4 89.432 147.4H79.882V157.75ZM120.404 177V147.525H110.529V142H136.054V147.525H126.179V177H120.404ZM147.693 177V142H153.468V177H147.693ZM167.347 177V142H189.872V147.45H173.122V156.2H183.972V161.65H173.122V177H167.347ZM201.113 177V142H206.888V177H201.113ZM234.139 177.55C231.439 177.55 229.155 177.033 227.289 176C225.422 174.967 223.914 173.583 222.764 171.85C221.63 170.1 220.805 168.158 220.289 166.025C219.772 163.875 219.514 161.7 219.514 159.5C219.514 157.383 219.78 155.258 220.314 153.125C220.847 150.992 221.689 149.042 222.839 147.275C223.989 145.508 225.497 144.092 227.364 143.025C229.23 141.942 231.489 141.4 234.139 141.4C236.322 141.4 238.205 141.75 239.789 142.45C241.372 143.15 242.68 144.05 243.714 145.15C244.764 146.25 245.555 147.408 246.089 148.625L240.939 151.075C240.372 150.242 239.78 149.508 239.164 148.875C238.547 148.242 237.83 147.75 237.014 147.4C236.214 147.05 235.255 146.875 234.139 146.875C232.522 146.875 231.155 147.258 230.039 148.025C228.922 148.792 228.03 149.8 227.364 151.05C226.714 152.3 226.239 153.667 225.939 155.15C225.639 156.617 225.489 158.067 225.489 159.5C225.489 161.017 225.655 162.525 225.989 164.025C226.322 165.508 226.839 166.858 227.539 168.075C228.239 169.275 229.13 170.242 230.214 170.975C231.314 171.692 232.622 172.05 234.139 172.05C235.772 172.05 237.122 171.642 238.189 170.825C239.272 169.992 240.214 168.917 241.014 167.6L246.289 169.575C245.589 171.092 244.689 172.45 243.589 173.65C242.489 174.85 241.155 175.8 239.589 176.5C238.039 177.2 236.222 177.55 234.139 177.55ZM254.913 177L267.938 142H273.388L286.413 177H280.288L277.463 169.2H263.888L261.113 177H254.913ZM265.738 163.975H275.563L271.713 153.4C271.613 153.117 271.496 152.783 271.363 152.4C271.229 152.017 271.096 151.642 270.963 151.275C270.829 150.892 270.729 150.55 270.663 150.25C270.579 150.55 270.471 150.892 270.338 151.275C270.221 151.642 270.096 152.017 269.963 152.4C269.829 152.783 269.713 153.117 269.613 153.4L265.738 163.975ZM300.049 177V147.525H290.174V142H315.699V147.525H305.824V177H300.049ZM327.338 177V142H333.113V177H327.338ZM360.668 177.6C357.901 177.6 355.551 177.075 353.618 176.025C351.685 174.958 350.126 173.55 348.943 171.8C347.76 170.033 346.893 168.083 346.343 165.95C345.81 163.817 345.543 161.667 345.543 159.5C345.543 157.333 345.81 155.183 346.343 153.05C346.893 150.917 347.76 148.975 348.943 147.225C350.126 145.458 351.685 144.05 353.618 143C355.551 141.933 357.901 141.4 360.668 141.4C363.468 141.4 365.826 141.933 367.743 143C369.676 144.05 371.235 145.458 372.418 147.225C373.601 148.975 374.46 150.917 374.993 153.05C375.526 155.183 375.793 157.333 375.793 159.5C375.793 161.667 375.526 163.817 374.993 165.95C374.46 168.083 373.601 170.033 372.418 171.8C371.235 173.55 369.676 174.958 367.743 176.025C365.826 177.075 363.468 177.6 360.668 177.6ZM360.668 172.075C362.368 172.075 363.793 171.692 364.943 170.925C366.11 170.158 367.051 169.15 367.768 167.9C368.485 166.633 369.001 165.267 369.318 163.8C369.635 162.333 369.793 160.9 369.793 159.5C369.793 157.983 369.635 156.483 369.318 155C369.018 153.517 368.51 152.158 367.793 150.925C367.093 149.692 366.16 148.708 364.993 147.975C363.826 147.242 362.385 146.875 360.668 146.875C358.968 146.875 357.535 147.267 356.368 148.05C355.201 148.817 354.26 149.825 353.543 151.075C352.826 152.325 352.31 153.692 351.993 155.175C351.676 156.658 351.518 158.1 351.518 159.5C351.518 161 351.676 162.492 351.993 163.975C352.326 165.458 352.843 166.817 353.543 168.05C354.26 169.267 355.201 170.242 356.368 170.975C357.535 171.708 358.968 172.075 360.668 172.075ZM388.228 177V142H393.728L408.078 164.05C408.295 164.383 408.536 164.792 408.803 165.275C409.086 165.742 409.328 166.2 409.528 166.65C409.511 166.25 409.486 165.8 409.453 165.3C409.436 164.8 409.428 164.383 409.428 164.05V142H415.178V177H409.903L395.278 154.85C395.078 154.517 394.836 154.108 394.553 153.625C394.286 153.142 394.045 152.7 393.828 152.3C393.895 152.7 393.928 153.133 393.928 153.6C393.945 154.05 393.953 154.467 393.953 154.85V177H388.228ZM440.22 177.6C438.087 177.6 436.145 177.233 434.395 176.5C432.662 175.75 431.179 174.717 429.945 173.4C428.729 172.067 427.82 170.517 427.22 168.75L432.495 166.775C433.229 168.375 434.279 169.675 435.645 170.675C437.012 171.658 438.587 172.15 440.37 172.15C442.237 172.15 443.737 171.733 444.87 170.9C446.004 170.067 446.57 168.85 446.57 167.25C446.57 166.15 446.237 165.233 445.57 164.5C444.904 163.75 444.012 163.117 442.895 162.6C441.779 162.067 440.554 161.567 439.22 161.1C437.97 160.65 436.704 160.158 435.42 159.625C434.137 159.092 432.97 158.442 431.92 157.675C430.87 156.892 430.02 155.933 429.37 154.8C428.737 153.65 428.42 152.25 428.42 150.6C428.42 148.933 428.87 147.408 429.77 146.025C430.67 144.625 431.97 143.508 433.67 142.675C435.37 141.825 437.42 141.4 439.82 141.4C441.804 141.4 443.554 141.725 445.07 142.375C446.587 143.008 447.837 143.883 448.82 145C449.804 146.1 450.495 147.342 450.895 148.725L445.695 150.45C445.245 149.433 444.512 148.575 443.495 147.875C442.495 147.158 441.154 146.8 439.47 146.8C437.837 146.8 436.562 147.142 435.645 147.825C434.729 148.492 434.27 149.433 434.27 150.65C434.27 151.517 434.579 152.25 435.195 152.85C435.812 153.433 436.637 153.95 437.67 154.4C438.72 154.85 439.87 155.3 441.12 155.75C442.454 156.233 443.779 156.767 445.095 157.35C446.429 157.933 447.645 158.65 448.745 159.5C449.862 160.35 450.745 161.4 451.395 162.65C452.062 163.9 452.395 165.425 452.395 167.225C452.395 169.425 451.862 171.3 450.795 172.85C449.729 174.383 448.27 175.558 446.42 176.375C444.587 177.192 442.52 177.6 440.22 177.6Z" fill="black"/>
</svg>
