<svg width="441" height="170" viewBox="0 0 441 170" fill="none" xmlns="http://www.w3.org/2000/svg">
<path d="M14.75 106V14.95H12.5L14 0.999993H37.4L44.6 57.55L51.95 0.999993H74.9V106H60.65V24.4L49.55 91H39.8L29 26.2V106H14.75ZM110.193 76V91.9C110.193 92.4 110.443 92.65 110.943 92.65H116.943C117.443 92.65 117.693 92.4 117.693 91.9V64.9L105.843 59.65C104.943 59.35 103.693 58.85 102.093 58.15C100.493 57.35 99.0434 56.2 97.7434 54.7C96.5434 53.2 95.9434 51.15 95.9434 48.55V14.35C95.9434 10.15 97.2434 6.79999 99.8434 4.3C102.443 1.69999 105.843 0.399992 110.043 0.399992H117.843C122.043 0.399992 125.443 1.69999 128.043 4.3C130.643 6.79999 131.943 10.15 131.943 14.35V36.55L117.693 35.35V15.1C117.693 14.6 117.443 14.35 116.943 14.35H110.943C110.443 14.35 110.193 14.6 110.193 15.1V46.45L122.043 51.7C122.943 52.1 124.193 52.65 125.793 53.35C127.393 54.05 128.793 55.15 129.993 56.65C131.293 58.15 131.943 60.2 131.943 62.8V92.65C131.943 96.85 130.643 100.25 128.043 102.85C125.443 105.35 122.043 106.6 117.843 106.6H110.043C105.843 106.6 102.443 105.35 99.8434 102.85C97.2434 100.25 95.9434 96.85 95.9434 92.65V76H110.193ZM186.232 46.45L184.732 60.4H169.432V106H155.182V14.95H152.932L154.432 0.999993H189.232L187.732 14.95H169.432V46.45H186.232ZM208.707 14.95V0.999993H249.957V14.95H236.457V106H222.207V14.95H208.707ZM286.021 0.999993V46.3H294.571V0.999993H308.821V106H294.571V60.25H286.021V106H271.771V14.95H269.521L271.021 0.999993H286.021ZM368.803 92.65C368.803 96.85 367.503 100.25 364.903 102.85C362.303 105.35 358.903 106.6 354.703 106.6H345.403C341.203 106.6 337.803 105.35 335.203 102.85C332.603 100.25 331.303 96.85 331.303 92.65V14.95H329.053L330.553 0.999993H345.553V91.9C345.553 92.4 345.803 92.65 346.303 92.65H353.803C354.303 92.65 354.553 92.4 354.553 91.9V1.3H368.803V92.65ZM391.256 107.05V14.95H389.006L390.506 0.999993H414.206C418.406 0.999993 421.806 2.29999 424.406 4.9C427.006 7.39999 428.306 10.75 428.306 14.95V46.45C428.306 47.85 428.106 49.2 427.706 50.5C430.106 53.1 431.306 56.4 431.306 60.4V93.1C431.306 97.3 429.706 100.7 426.506 103.3C423.406 105.8 419.756 107.05 415.556 107.05H391.256ZM413.306 14.95H405.506V46.45H413.306C413.806 46.45 414.056 46.2 414.056 45.7V15.7C414.056 15.2 413.806 14.95 413.306 14.95ZM416.306 60.4H405.506V93.1H416.306C416.806 93.1 417.056 92.85 417.056 92.35V61.15C417.056 60.65 416.806 60.4 416.306 60.4Z" fill="black"/>
<path d="M15.6825 169.583C12.8205 169.583 10.4002 169.035 8.4215 167.94C6.44283 166.845 4.844 165.378 3.625 163.541C2.42367 161.686 1.54917 159.628 1.0015 157.366C0.453833 155.087 0.18 152.782 0.18 150.45C0.18 148.206 0.462667 145.954 1.028 143.692C1.59333 141.431 2.4855 139.364 3.7045 137.491C4.9235 135.619 6.52233 134.117 8.501 132.986C10.4797 131.838 12.8735 131.264 15.6825 131.264C17.9968 131.264 19.9932 131.635 21.6715 132.377C23.3498 133.119 24.7367 134.073 25.832 135.239C26.945 136.405 27.7842 137.633 28.3495 138.922L22.8905 141.519C22.2898 140.636 21.6627 139.859 21.009 139.188C20.3553 138.516 19.5957 137.995 18.73 137.624C17.882 137.253 16.8662 137.067 15.6825 137.067C13.9688 137.067 12.5202 137.474 11.3365 138.286C10.1528 139.099 9.20767 140.168 8.501 141.493C7.812 142.818 7.3085 144.267 6.9905 145.839C6.6725 147.394 6.5135 148.931 6.5135 150.45C6.5135 152.058 6.69017 153.656 7.0435 155.246C7.39683 156.819 7.9445 158.25 8.6865 159.539C9.4285 160.811 10.3737 161.836 11.522 162.613C12.688 163.373 14.0748 163.753 15.6825 163.753C17.4138 163.753 18.8448 163.32 19.9755 162.454C21.1238 161.571 22.122 160.432 22.97 159.036L28.5615 161.129C27.8195 162.737 26.8655 164.177 25.6995 165.449C24.5335 166.721 23.1202 167.728 21.4595 168.47C19.8165 169.212 17.8908 169.583 15.6825 169.583ZM40.7681 169V131.9H64.8301V137.677H46.8896V146.952H57.8871V152.729H46.8896V163.17H65.9431V169H40.7681ZM78.7335 169V131.9H94.872C97.9106 131.9 100.313 132.43 102.08 133.49C103.847 134.55 105.101 135.937 105.843 137.65C106.603 139.346 106.982 141.148 106.982 143.056C106.982 144.487 106.709 145.918 106.161 147.349C105.613 148.78 104.756 150.061 103.59 151.192C102.442 152.305 100.967 153.109 99.165 153.603L106.691 169H99.8275L92.593 154.319H84.855V169H78.7335ZM84.855 148.595H94.978C96.409 148.595 97.5396 148.33 98.37 147.8C99.218 147.27 99.8186 146.59 100.172 145.759C100.525 144.929 100.702 144.055 100.702 143.136C100.702 142.288 100.534 141.449 100.198 140.618C99.8805 139.77 99.2975 139.064 98.4495 138.498C97.6191 137.915 96.462 137.624 94.978 137.624H84.855V148.595ZM127.809 169V137.756H117.341V131.9H144.398V137.756H133.93V169H127.809ZM156.735 169V131.9H162.856V169H156.735ZM177.568 169V131.9H201.445V137.677H183.69V146.952H195.191V152.729H183.69V169H177.568ZM213.36 169V131.9H219.481V169H213.36ZM248.367 169.583C245.505 169.583 243.085 169.035 241.106 167.94C239.127 166.845 237.528 165.378 236.309 163.541C235.108 161.686 234.234 159.628 233.686 157.366C233.138 155.087 232.864 152.782 232.864 150.45C232.864 148.206 233.147 145.954 233.712 143.692C234.278 141.431 235.17 139.364 236.389 137.491C237.608 135.619 239.207 134.117 241.185 132.986C243.164 131.838 245.558 131.264 248.367 131.264C250.681 131.264 252.678 131.635 254.356 132.377C256.034 133.119 257.421 134.073 258.516 135.239C259.629 136.405 260.469 137.633 261.034 138.922L255.575 141.519C254.974 140.636 254.347 139.859 253.693 139.188C253.04 138.516 252.28 137.995 251.414 137.624C250.566 137.253 249.551 137.067 248.367 137.067C246.653 137.067 245.205 137.474 244.021 138.286C242.837 139.099 241.892 140.168 241.185 141.493C240.496 142.818 239.993 144.267 239.675 145.839C239.357 147.394 239.198 148.931 239.198 150.45C239.198 152.058 239.375 153.656 239.728 155.246C240.081 156.819 240.629 158.25 241.371 159.539C242.113 160.811 243.058 161.836 244.206 162.613C245.372 163.373 246.759 163.753 248.367 163.753C250.098 163.753 251.529 163.32 252.66 162.454C253.808 161.571 254.806 160.432 255.654 159.036L261.246 161.129C260.504 162.737 259.55 164.177 258.384 165.449C257.218 166.721 255.805 167.728 254.144 168.47C252.501 169.212 250.575 169.583 248.367 169.583ZM270.387 169L284.194 131.9H289.971L303.777 169H297.285L294.29 160.732H279.901L276.959 169H270.387ZM281.862 155.193H292.276L288.195 143.984C288.089 143.684 287.966 143.33 287.824 142.924C287.683 142.518 287.542 142.12 287.4 141.731C287.259 141.325 287.153 140.963 287.082 140.645C286.994 140.963 286.879 141.325 286.738 141.731C286.614 142.12 286.482 142.518 286.34 142.924C286.199 143.33 286.075 143.684 285.969 143.984L281.862 155.193ZM318.232 169V137.756H307.764V131.9H334.821V137.756H324.353V169H318.232ZM347.158 169V131.9H353.279V169H347.158ZM382.488 169.636C379.555 169.636 377.064 169.079 375.015 167.966C372.966 166.836 371.314 165.343 370.06 163.488C368.805 161.615 367.887 159.548 367.304 157.287C366.738 155.026 366.456 152.747 366.456 150.45C366.456 148.153 366.738 145.874 367.304 143.613C367.887 141.352 368.805 139.293 370.06 137.438C371.314 135.566 372.966 134.073 375.015 132.96C377.064 131.829 379.555 131.264 382.488 131.264C385.456 131.264 387.956 131.829 389.988 132.96C392.037 134.073 393.689 135.566 394.943 137.438C396.197 139.293 397.107 141.352 397.673 143.613C398.238 145.874 398.521 148.153 398.521 150.45C398.521 152.747 398.238 155.026 397.673 157.287C397.107 159.548 396.197 161.615 394.943 163.488C393.689 165.343 392.037 166.836 389.988 167.966C387.956 169.079 385.456 169.636 382.488 169.636ZM382.488 163.779C384.29 163.779 385.801 163.373 387.02 162.56C388.256 161.748 389.254 160.679 390.014 159.354C390.774 158.011 391.321 156.563 391.657 155.008C391.993 153.453 392.161 151.934 392.161 150.45C392.161 148.842 391.993 147.252 391.657 145.68C391.339 144.108 390.8 142.668 390.041 141.36C389.299 140.053 388.309 139.011 387.073 138.233C385.836 137.456 384.308 137.067 382.488 137.067C380.686 137.067 379.167 137.483 377.93 138.313C376.693 139.126 375.695 140.194 374.936 141.519C374.176 142.844 373.628 144.293 373.293 145.865C372.957 147.438 372.789 148.966 372.789 150.45C372.789 152.04 372.957 153.621 373.293 155.193C373.646 156.766 374.194 158.206 374.936 159.513C375.695 160.803 376.693 161.836 377.93 162.613C379.167 163.391 380.686 163.779 382.488 163.779ZM411.702 169V131.9H417.532L432.743 155.273C432.972 155.626 433.229 156.059 433.511 156.571C433.812 157.066 434.068 157.552 434.28 158.029C434.262 157.605 434.236 157.128 434.2 156.598C434.183 156.068 434.174 155.626 434.174 155.273V131.9H440.269V169H434.677L419.175 145.521C418.963 145.168 418.707 144.735 418.406 144.222C418.124 143.71 417.867 143.242 417.638 142.818C417.708 143.242 417.744 143.701 417.744 144.196C417.761 144.673 417.77 145.115 417.77 145.521V169H411.702Z" fill="black"/>
</svg>
